<?xml version="1.0" standalone="no"?>
<!DOCTYPE svg PUBLIC "-//W3C//DTD SVG 1.1//EN" "http://www.w3.org/Graphics/SVG/1.1/DTD/svg11.dtd" >
<svg xmlns="http://www.w3.org/2000/svg">
<metadata>
This is a custom SVG webfont generated by Font Squirrel.
Copyright   : Copyright c 1999 Ramakanta Dasa
</metadata>
<defs>
<font id="SanskritHelveticaRegular" horiz-adv-x="1138" >
<font-face units-per-em="2048" ascent="1638" descent="-410" />
<missing-glyph horiz-adv-x="569" />
<glyph unicode=" "  horiz-adv-x="569" />
<glyph unicode="&#x09;" horiz-adv-x="569" />
<glyph unicode="&#xa0;" horiz-adv-x="569" />
<glyph unicode="!" horiz-adv-x="569" d="M184 0v209h199v-209h-199zM184 985v485h199v-485l-49 -635h-101z" />
<glyph unicode="&#x22;" horiz-adv-x="727" d="M143 948v522h150v-522h-150zM434 948v522h150v-522h-150z" />
<glyph unicode="#" d="M57 430l19 129h211l39 291h-211l18 129h211l59 430h138l-60 -430h254l60 430h137l-60 -430h211l-18 -129h-211l-41 -291h211l-18 -129h-211l-60 -430h-135l59 430h-256l-59 -430h-135l59 430h-211zM422 559h256l39 291h-254z" />
<glyph unicode="$" d="M66 436h180q0 -162 59.5 -231.5t212.5 -93.5v542q-205 47 -291 113q-133 98 -133 291q0 166 121 282.5t303 116.5v131h96v-131q147 0 256 -70q160 -102 160 -319h-174q-12 96 -55 147q-57 68 -187 93v-490q254 -74 330 -131q121 -90 121 -285q0 -233 -162 -350 q-123 -90 -289 -90v-197h-96v197q-207 0 -321 105q-131 118 -131 370zM274 1069q0 -100 76 -162q63 -53 168 -69v469q-113 0 -178.5 -70t-65.5 -168zM614 111q129 0 200 74.5t71 183.5q0 84 -45 144t-115 83l-111 35v-520z" />
<glyph unicode="%" horiz-adv-x="1820" d="M80 1077q0 145 102.5 245.5t247.5 100.5q143 0 245.5 -100t102.5 -246q0 -145 -100 -247.5t-248 -102.5q-145 0 -247.5 100t-102.5 250zM223 1077q0 -92 59.5 -149.5t145.5 -57.5q88 0 147.5 61.5t59.5 145.5q0 86 -60.5 144.5t-144.5 58.5q-88 0 -147.5 -59.5 t-59.5 -143.5zM449 -39l808 1479h113l-811 -1479h-110zM1042 336q0 145 102.5 245.5t248.5 100.5q143 0 245.5 -100.5t102.5 -245.5t-100.5 -247.5t-247.5 -102.5q-145 0 -248 100t-103 250zM1186 336q0 -92 59.5 -149.5t145.5 -57.5q88 0 147 61.5t59 145.5q0 86 -60 144.5 t-144 58.5q-88 0 -147.5 -59.5t-59.5 -143.5z" />
<glyph unicode="&#x26;" horiz-adv-x="1366" d="M90 354q0 156 64 248q72 104 268 215q-88 109 -117 164q-39 74 -39 162q0 135 88 227q96 100 260 100q162 0 252 -96q78 -84 78 -207q0 -137 -90 -241q-51 -61 -174 -144l268 -319q25 68 35 106.5t25 122.5h170q0 -74 -31 -172t-88 -203l262 -317h-234l-137 168 q-84 -96 -170 -141q-109 -57 -258 -58q-240 0 -352 150q-80 106 -80 235zM270 369q0 -123 101 -191q78 -53 164 -53q201 0 319 164l-332 405q-135 -86 -184 -141q-68 -75 -68 -184zM440 1155q0 -66 52 -143q35 -53 94 -113q86 57 121 98q63 72 63 156q0 88 -55 129 q-43 33 -103 33q-98 0 -143 -62q-29 -41 -29 -98z" />
<glyph unicode="'" horiz-adv-x="391" d="M121 948v522h149v-522h-149z" />
<glyph unicode="(" horiz-adv-x="681" d="M139 535q0 258 90 499q82 217 256 467h125q-109 -205 -149 -299q-68 -156 -98.5 -316.5t-30.5 -400.5q0 -164 32.5 -302t102.5 -304q47 -109 145 -303h-120q-123 184 -187 305q-80 150 -123 312t-43 342z" />
<glyph unicode=")" horiz-adv-x="681" d="M70 1501h120q123 -184 187 -305q80 -150 123 -311.5t43 -341.5q0 -258 -90 -500q-82 -217 -256 -467h-125q109 205 149 299q68 156 98.5 316.5t30.5 400.5q0 164 -32.5 302t-102.5 304q-47 108 -145 303z" />
<glyph unicode="*" horiz-adv-x="796" d="M80 1210l41 113l215 -78v225h123v-225l215 78l41 -113l-221 -69l137 -189l-101 -69l-133 192l-133 -192l-100 69l137 189z" />
<glyph unicode="+" horiz-adv-x="1196" d="M80 442v150h444v442h150v-442h442v-150h-442v-442h-150v442h-444z" />
<glyph unicode="," horiz-adv-x="569" d="M178 0v217h213v-201q0 -178 -90 -260q-51 -47 -123 -57v94q59 6 84 64.5t25 142.5h-109z" />
<glyph unicode="-" horiz-adv-x="681" d="M90 475v184h502v-184h-502z" />
<glyph unicode="." horiz-adv-x="569" d="M178 0v217h213v-217h-213z" />
<glyph unicode="/" horiz-adv-x="569" d="M-35 -39l504 1548h135l-502 -1548h-137z" />
<glyph unicode="0" d="M76 700q0 295 90 482q125 258 403 258q276 0 402 -256q92 -190 92 -484q0 -295 -90 -481q-125 -258 -404 -258q-276 0 -401 256q-92 190 -92 483zM268 700q0 -279 74 -428t227 -149q152 0 226.5 150.5t74.5 426.5q0 279 -73.5 428.5t-227.5 149.5q-152 0 -226.5 -151 t-74.5 -427z" />
<glyph unicode="1" d="M207 1022v143q186 0 260 47q84 55 127 228h141v-1440h-192v1022h-336z" />
<glyph unicode="2" d="M53 0q0 209 97 354q82 123 241 217l191 111q147 86 190 129q74 78 74 207q0 102 -62 172q-78 88 -223 88q-137 0 -211 -84q-80 -92 -80 -270h-180q0 307 191 434q123 82 307 82q193 0 321.5 -117t128.5 -313q0 -178 -110 -295q-76 -80 -275 -187l-149 -82 q-131 -72 -195 -157q-45 -59 -53 -119h782v-170h-985z" />
<glyph unicode="3" d="M70 440h186q0 -135 51 -209q74 -109 256 -108q139 0 226.5 76.5t87.5 201.5q0 160 -121 224q-78 41 -215 41l-82 -2v155l94 -4q119 0 188 49q86 61 86 187q0 86 -51 145q-70 82 -215 82q-166 0 -235 -117q-45 -76 -45 -192h-177q0 195 91 315q117 156 374 156 q205 0 325 -105.5t120 -273.5q0 -127 -62 -209q-49 -66 -123 -88q115 -41 172 -115q68 -86 68 -225q0 -195 -121 -320q-139 -143 -397 -143q-68 0 -113 8q-74 14 -153 56q-115 59 -165 167.5t-50 247.5z" />
<glyph unicode="4" d="M51 350v176l660 914h149v-934h211v-156h-211v-350h-180v350h-629zM217 506h463v653z" />
<glyph unicode="5" d="M66 358h186q14 -121 98 -184q78 -57 207 -57q137 0 220 94t83 235q0 152 -90 236t-229 84q-162 0 -267 -137l-155 8l108 772h746v-176h-611l-61 -395q55 43 113 63q74 27 166 27q188 0 323 -119q150 -131 150 -342q0 -178 -92 -311q-135 -195 -431 -195q-172 0 -288 78 q-151 102 -176 319z" />
<glyph unicode="6" d="M78 670q0 299 104 501q139 268 428 269q158 0 273 -80q147 -102 147 -303h-176q-18 102 -74 157q-63 63 -174 64q-184 0 -276 -209q-66 -150 -66 -324l4 -4q43 74 113 117q96 59 229 60q166 0 291 -99q160 -125 160 -358q0 -211 -137 -361q-63 -70 -133 -100 q-90 -39 -232 -39q-100 0 -188 43q-111 53 -183 166q-61 96 -85.5 218t-24.5 282zM289 442q0 -129 71 -217q82 -102 232 -102q127 0 204.5 92t77.5 238q0 117 -61 198q-78 104 -229 105q-141 0 -218 -89.5t-77 -224.5z" />
<glyph unicode="7" d="M76 1233v176h995v-158q-88 -92 -192 -247q-133 -199 -230 -426q-123 -291 -170 -578h-198q35 287 208 643q166 344 379 590h-792z" />
<glyph unicode="8" d="M78 414q0 129 62.5 215t181.5 135q-195 74 -195 280q0 147 88 254q117 141 348 142q221 0 342 -121q102 -102 103 -250q0 -137 -68 -217q-37 -45 -117 -86q131 -55 191 -164q45 -84 45 -186q0 -190 -115 -314q-131 -141 -373 -141q-82 0 -159 21q-109 29 -187 90 q-96 76 -129 188q-18 62 -18 154zM270 410q0 -111 60 -187q80 -100 248 -100q121 0 192 51q96 70 96 221q0 139 -84 210t-215 71q-143 0 -220 -78.5t-77 -187.5zM313 1053q0 -100 74 -161t178 -61q115 0 185.5 65t70.5 167q0 82 -53 139q-72 76 -215 76q-131 0 -193 -78 q-47 -59 -47 -147z" />
<glyph unicode="9" d="M86 946q0 207 117 344q129 150 346 150q301 0 424 -246q80 -160 80 -422q0 -145 -25 -278q-41 -223 -141 -357q-133 -176 -357 -176q-225 0 -340 139q-88 106 -88 246h181q0 -109 65.5 -172t177.5 -63q147 0 229.5 129t116.5 409l-4 4q-37 -78 -131 -125t-198 -47 q-201 0 -327 126t-126 339zM272 954q0 -182 101 -258q72 -53 192 -53q102 0 172 55q104 84 105 273q0 133 -68 215q-76 92 -223 92q-127 0 -203 -88.5t-76 -235.5z" />
<glyph unicode=":" horiz-adv-x="569" d="M178 0v217h213v-217h-213zM178 840v217h213v-217h-213z" />
<glyph unicode=";" horiz-adv-x="569" d="M178 0v217h213v-201q0 -178 -90 -260q-51 -47 -123 -57v94q59 6 84 64.5t25 142.5h-109zM178 840v217h213v-217h-213z" />
<glyph unicode="&#x3c;" horiz-adv-x="1196" d="M98 446v144l1000 424v-164l-799 -332l799 -332v-163z" />
<glyph unicode="=" horiz-adv-x="1196" d="M80 236v149h1036v-149h-1036zM80 649v150h1036v-150h-1036z" />
<glyph unicode="&#x3e;" horiz-adv-x="1196" d="M98 23v163l799 332l-799 332v164l1000 -424v-144z" />
<glyph unicode="?" d="M115 1010q0 127 24 200q35 106 137 185q57 45 137.5 69.5t159.5 24.5q182 0 304 -103q131 -111 131 -299q0 -98 -43 -169q-35 -59 -150 -168q-88 -84 -113 -119q-66 -88 -65 -256h-180q0 164 43 252q33 66 151 188q90 94 111 119q53 68 53 166q0 84 -49 147 q-68 86 -199 86q-168 0 -233 -129q-39 -76 -39 -194h-180zM453 0v209h198v-209h-198z" />
<glyph unicode="@" horiz-adv-x="2078" d="M301 739q0 319 227.5 544.5t544.5 225.5q291 0 498 -181t207 -458q0 -254 -176 -434q-154 -158 -314 -157q-57 0 -94 32.5t-37 96.5q-51 -53 -117.5 -91t-132.5 -38q-131 0 -216 95t-85 232q0 221 129 387q137 178 344 178q78 0 137.5 -37.5t98.5 -121.5l41 127h139 q-31 -115 -121 -420q-63 -215 -63 -248q0 -59 43 -59q104 0 197.5 140t93.5 302q0 238 -170 387q-162 141 -402 141q-270 0 -446 -188t-176 -467q0 -270 184 -454.5t452 -184.5q145 0 276.5 61.5t221.5 172.5h137q-100 -168 -270 -264.5t-369 -96.5q-328 0 -555 225 t-227 553zM774 625q0 -88 47 -143.5t125 -55.5q121 0 217 143q88 133 88 267q0 76 -50 132t-118 56q-129 0 -223 -135q-86 -123 -86 -264z" />
<glyph unicode="A" horiz-adv-x="1366" d="M29 0l553 1470h225l532 -1470h-217l-145 428h-590l-154 -428h-204zM449 604h456l-217 647z" />
<glyph unicode="B" horiz-adv-x="1366" d="M152 0v1470h647q199 0 311 -108q104 -102 104 -262q0 -88 -36 -160q-49 -96 -160 -147q115 -47 168 -99q98 -96 98 -260q0 -186 -127 -305q-137 -129 -373 -129h-632zM350 170h424q154 0 232.5 70.5t78.5 197.5q0 139 -110 201q-86 47 -234 47h-391v-516zM350 848h359 q152 0 225 51q82 57 82 186q0 106 -72 160.5t-233 54.5h-361v-452z" />
<glyph unicode="C" horiz-adv-x="1478" d="M90 743q0 344 184.5 555t501.5 211q266 0 432 -147q150 -133 172 -334h-192q-37 174 -172 250q-98 55 -240 55q-211 0 -340 -145q-141 -158 -141 -438q0 -283 106 -437q123 -176 381 -176q133 0 232 72q143 104 188 332h193q-37 -250 -178 -398q-106 -111 -267 -155 q-94 -27 -198 -27q-281 0 -457 178q-205 207 -205 604z" />
<glyph unicode="D" horiz-adv-x="1478" d="M166 0v1470h596q283 0 450.5 -196.5t167.5 -517.5q0 -301 -131 -502q-166 -254 -495 -254h-588zM365 170h385q197 0 311.5 149.5t114.5 423.5q0 272 -117 414.5t-324 142.5h-370v-1130z" />
<glyph unicode="E" horiz-adv-x="1366" d="M176 0v1470h1071v-176h-872v-450h805v-176h-805v-492h887v-176h-1086z" />
<glyph unicode="F" horiz-adv-x="1251" d="M176 0v1470h1018v-176h-819v-450h721v-176h-721v-668h-199z" />
<glyph unicode="G" horiz-adv-x="1593" d="M98 748q0 301 168 516q193 246 529 245q225 0 397 -118q195 -135 225 -367h-192q-43 172 -183 250q-106 59 -258 59q-207 0 -340 -153q-141 -164 -141 -443q0 -266 96 -415q123 -190 394 -191q78 0 137 14q90 23 164 80q92 72 126.5 167t34.5 224h-458v170h645v-786h-129 l-47 190q-76 -104 -207 -166.5t-279 -62.5q-168 0 -291 55q-86 39 -159 111q-150 141 -201 332q-31 113 -31 289z" />
<glyph unicode="H" horiz-adv-x="1478" d="M158 0v1470h198v-608h768v608h199v-1470h-199v686h-768v-686h-198z" />
<glyph unicode="I" horiz-adv-x="569" d="M186 0v1470h199v-1470h-199z" />
<glyph unicode="J" horiz-adv-x="1024" d="M35 328v145h186v-102q0 -127 60 -187q53 -53 161 -53q129 0 187 72q49 61 49 182v1085h199v-1073q0 -233 -138 -346q-111 -90 -286 -90q-227 0 -336 131q-82 99 -82 236z" />
<glyph unicode="K" horiz-adv-x="1366" d="M156 0v1470h198v-712l713 712h274l-612 -593l629 -877h-258l-514 737l-232 -221v-516h-198z" />
<glyph unicode="L" d="M156 0v1470h198v-1294h746v-176h-944z" />
<glyph unicode="M" horiz-adv-x="1705" d="M150 0v1470h284l420 -1243l422 1243h283v-1470h-193v868l4 367l-418 -1235h-196l-414 1233v-365v-868h-192z" />
<glyph unicode="N" horiz-adv-x="1478" d="M156 0v1470h235l735 -1187l4 1187h193v-1470h-223l-748 1188l-4 -1188h-192z" />
<glyph unicode="O" horiz-adv-x="1593" d="M80 735q0 295 151 506q193 268 566 268q371 0 563 -268q154 -213 153 -506q0 -295 -151 -506q-193 -268 -565 -268q-371 0 -564 268q-153 213 -153 506zM285 735q0 -264 138 -431t374 -167t374 167t138 431t-135 428q-141 170 -377 170t-374 -167t-138 -431z" />
<glyph unicode="P" horiz-adv-x="1366" d="M176 0v1470h662q201 0 318.5 -115.5t117.5 -297.5q0 -176 -98 -295q-117 -141 -338 -141h-463v-621h-199zM375 791h395q143 0 217 57q82 63 82 207q0 131 -84 192q-74 53 -207 53h-403v-509z" />
<glyph unicode="Q" horiz-adv-x="1593" d="M80 735q0 295 151 506q193 268 566 268q371 0 563 -268q154 -213 153 -506q0 -156 -47 -297q-55 -168 -166 -278l201 -156l-100 -119l-225 174q-74 -47 -169.5 -72.5t-209.5 -25.5q-371 0 -564 268q-153 213 -153 506zM285 735q0 -264 138 -431t374 -167q123 0 217 47 l-154 119l101 123l186 -145q162 162 162 454q0 264 -135 428q-141 170 -377 170t-374 -167t-138 -431z" />
<glyph unicode="R" horiz-adv-x="1478" d="M180 0v1470h680q211 0 332 -79q152 -100 151 -316q0 -145 -65 -235q-45 -61 -139 -117q86 -35 118 -74q57 -66 58 -203l12 -266q0 -63 13.5 -92t60.5 -55v-33h-244q-18 61 -26.5 173t-8.5 196q0 119 -41 176q-61 86 -221 86h-481v-631h-199zM379 801h461q135 0 204 45 q94 59 95 209q0 150 -95 207q-63 39 -170 38h-495v-499z" />
<glyph unicode="S" horiz-adv-x="1366" d="M100 475h187q0 -182 131 -272q104 -72 274 -72q199 0 299 74q86 63 86 174q0 113 -64.5 165t-248.5 95l-301 70q-121 29 -193 84q-121 94 -120 262q0 190 118 313q137 141 387 141q338 0 480 -174q94 -115 94 -295h-187q0 156 -118 234q-98 66 -246 65q-131 0 -215 -45 q-121 -66 -121 -213q0 -86 53 -131q43 -37 121 -55l420 -96q154 -37 238 -125q96 -102 96 -268q0 -236 -193 -353q-154 -92 -383 -92q-182 0 -299 47q-76 31 -145 94q-86 78 -118 168t-32 205z" />
<glyph unicode="T" horiz-adv-x="1251" d="M29 1294v176h1194v-176h-498v-1294h-199v1294h-497z" />
<glyph unicode="U" horiz-adv-x="1478" d="M162 489v981h198v-925q0 -219 119 -324q96 -84 254 -84q162 0 262 82q125 102 125 322v929h199v-954q0 -242 -143 -391q-158 -164 -449 -164q-281 0 -430 160q-135 143 -135 368z" />
<glyph unicode="V" horiz-adv-x="1366" d="M41 1470h221l420 -1253l420 1253h223l-537 -1470h-210z" />
<glyph unicode="W" horiz-adv-x="1933" d="M33 1470h215l274 -1196l334 1196h217l330 -1196l278 1196h220l-388 -1470h-208l-336 1219l-344 -1219h-209z" />
<glyph unicode="X" horiz-adv-x="1366" d="M39 0l526 754l-493 716h250l372 -563l373 563h238l-494 -716l516 -754h-246l-395 604l-407 -604h-240z" />
<glyph unicode="Y" horiz-adv-x="1366" d="M29 1470h231l422 -706l422 706h233l-555 -878v-592h-198v592z" />
<glyph unicode="Z" horiz-adv-x="1251" d="M47 0v166l901 1128h-833v176h1089v-172l-905 -1122h905v-176h-1157z" />
<glyph unicode="[" horiz-adv-x="569" d="M129 -401v1880h383v-146h-221v-1589h221v-145h-383z" />
<glyph unicode="\" horiz-adv-x="569" d="M-35 1509h135l504 -1548h-137z" />
<glyph unicode="]" horiz-adv-x="569" d="M57 -256h222v1589h-222v146h383v-1880h-383v145z" />
<glyph unicode="^" horiz-adv-x="960" d="M-29 541l437 868h147l434 -868h-158l-350 704l-350 -704h-160z" />
<glyph unicode="_" d="M0 -154h1139v-102h-1139v102z" />
<glyph unicode="`" horiz-adv-x="681" d="M29 1503h221l182 -289h-137z" />
<glyph unicode="a" d="M74 279q0 111 49 186q82 125 276 149l297 37q43 4 64 25q31 29 31 102q0 174 -252 174q-135 0 -195 -71q-37 -45 -51 -136h-166q0 186 115.5 271.5t326.5 85.5q131 0 230 -45q168 -76 168 -254v-617q0 -63 59 -63l59 8v-131q-31 -8 -53 -14t-45 -6q-109 0 -156 51 q-35 39 -34 112q-68 -74 -142 -114q-106 -59 -245 -60q-150 0 -243 85.5t-93 224.5zM260 305q0 -186 195 -186q131 0 231 72.5t100 179.5v176q-23 -18 -82 -32.5t-215 -35.5q-96 -14 -147 -41q-82 -43 -82 -133z" />
<glyph unicode="b" d="M119 0v1470h180v-534q121 166 313 166q207 0 330 -154q117 -147 117 -381q0 -236 -98 -395q-125 -203 -373 -203q-119 0 -201 60q-53 39 -94 104l-4 -133h-170zM291 485q0 -190 102 -286q80 -74 191 -74q141 0 214.5 114.5t73.5 299.5q0 162 -41 252q-70 150 -251 149 q-172 0 -242 -162q-47 -109 -47 -293z" />
<glyph unicode="c" horiz-adv-x="1024" d="M61 506q0 264 123 422q135 174 391 174q197 0 306 -125q96 -111 96 -266h-174q-16 111 -80 170t-174 59q-156 0 -232 -129q-63 -106 -63 -274q0 -174 53 -275q72 -137 240 -137q92 0 162.5 66.5t93.5 187.5h174q-18 -162 -107 -268q-117 -141 -329 -142 q-221 0 -350.5 149.5t-129.5 387.5z" />
<glyph unicode="d" d="M72 567q0 233 118.5 384t327.5 151q127 0 217 -68q47 -35 103 -114l4 14v536h180v-1470h-170v147q-55 -100 -145 -143q-72 -35 -164 -35q-248 0 -373 203q-98 159 -98 395zM258 539q0 -186 72.5 -300t216.5 -114q111 0 188 72q104 96 105 288q0 242 -82 355 q-74 100 -207 100q-180 0 -250 -149q-43 -92 -43 -252z" />
<glyph unicode="e" d="M82 506q0 264 123 422q135 174 391 174q227 0 344 -167t117 -458h-783q0 -170 79 -261t233 -91q117 0 202 76q74 66 74 135h180q-8 -59 -45 -131q-53 -100 -145 -162q-51 -35 -98 -49q-78 -25 -193 -25q-221 0 -350 149.5t-129 387.5zM274 621h596q0 139 -65 221 q-78 98 -234 98q-123 0 -210 -95t-87 -224z" />
<glyph unicode="f" horiz-adv-x="569" d="M29 922v149h147v184q0 236 279 236l82 -4v-162l-74 4q-57 0 -82 -28.5t-25 -96.5v-133h181v-149h-181v-922h-180v922h-147z" />
<glyph unicode="g" d="M82 567q0 233 118.5 384t327.5 151q127 0 217 -68q47 -35 103 -114l4 151h170v-983q0 -213 -61 -326q-115 -213 -437 -213q-143 0 -239 52q-147 78 -170 268h180q16 -86 76.5 -128t165.5 -42q201 0 268 139q37 76 37 238v45l-4 -8q-39 -63 -110 -103.5t-175 -40.5 q-248 0 -373 203q-98 159 -98 395zM268 539q0 -186 73 -300t216 -114q111 0 188 72q104 96 105 288q0 242 -82 355q-74 100 -207 100q-180 0 -250 -149q-43 -92 -43 -252z" />
<glyph unicode="h" d="M133 0v1470h180v-542q63 76 115 112q88 61 203 62q154 0 250 -72q125 -94 125 -301v-729h-181v700q0 121 -41 174q-49 66 -172 66q-127 0 -204 -76q-94 -92 -95 -280v-584h-180z" />
<glyph unicode="i" horiz-adv-x="454" d="M137 0v1071h180v-1071h-180zM137 1266v204h180v-204h-180z" />
<glyph unicode="j" horiz-adv-x="454" d="M-33 -268h37q86 0 109.5 20.5t23.5 110.5v1208h180v-1229q0 -111 -36 -170q-63 -102 -238 -102l-76 6v156zM137 1266v204h180v-204h-180z" />
<glyph unicode="k" horiz-adv-x="1024" d="M137 0v1470h174v-852l461 453h229l-409 -399l434 -672h-231l-334 541l-150 -135v-406h-174z" />
<glyph unicode="l" horiz-adv-x="454" d="M137 0v1470h180v-1470h-180z" />
<glyph unicode="m" horiz-adv-x="1705" d="M133 0v1071h170v-151q74 98 151.5 140t176.5 42q125 0 203 -66q43 -37 81 -108q84 92 136 125q80 49 192 49q123 0 209 -66q123 -94 123 -295v-741h-180v692q0 119 -41 178q-49 70 -158 70q-111 0 -181.5 -86t-70.5 -201v-653h-180v741q0 84 -33 133q-43 66 -135 66 q-104 0 -178 -68q-104 -94 -105 -288v-584h-180z" />
<glyph unicode="n" d="M133 0v1071h170v-151q53 72 111 112q96 70 217 70q154 0 250 -72q125 -94 125 -301v-729h-181v659q0 147 -49 214t-180 67q-104 0 -178 -68q-104 -94 -105 -288v-584h-180z" />
<glyph unicode="o" d="M72 537q0 231 118 387q135 178 379 178q242 0 377 -178q121 -158 121 -387q0 -231 -119 -387q-135 -178 -379 -179q-242 0 -376 179q-121 158 -121 387zM258 537q0 -152 57 -258q82 -152 254 -152q170 0 252 149q59 109 60 261q0 152 -58 258q-82 152 -254 151 q-170 0 -252 -149q-59 -108 -59 -260z" />
<glyph unicode="p" d="M119 -424v1495h170v-151q80 104 145 139q80 43 178 43q207 0 330 -154q117 -147 117 -381q0 -236 -98 -395q-125 -203 -373 -203q-100 0 -173 40t-112 104l-4 -537h-180zM291 485q0 -190 102 -286q80 -74 191 -74q141 0 214.5 114.5t73.5 299.5q0 162 -41 252 q-70 150 -251 149q-172 0 -242 -162q-47 -109 -47 -293z" />
<glyph unicode="q" d="M72 567q0 233 118.5 384t327.5 151q127 0 217 -68q47 -35 103 -114l4 151h170v-1495h-181v537q-43 -63 -114.5 -103.5t-173.5 -40.5q-248 0 -373 203q-98 159 -98 395zM258 539q0 -186 72.5 -300t216.5 -114q111 0 188 72q104 96 105 288q0 242 -82 355q-74 100 -207 100 q-180 0 -250 -149q-43 -92 -43 -252z" />
<glyph unicode="r" horiz-adv-x="681" d="M158 0v1071h170v-178q61 102 129 151q78 57 176 58q25 0 47 -6v-187h-68q-123 0 -198.5 -82t-75.5 -204v-623h-180z" />
<glyph unicode="s" horiz-adv-x="1024" d="M66 344h174q0 -88 47 -141q70 -78 237 -78q109 0 172 39q74 45 74 131q0 61 -44 92t-169 62l-209 51q-119 29 -180 88q-68 66 -68 172q0 166 123 258q113 84 283 84q190 0 299.5 -94.5t109.5 -241.5h-174q0 72 -41 115q-63 66 -213 65q-74 0 -127 -24q-86 -39 -86 -127 q0 -61 45 -93q33 -23 150 -51l180 -45q164 -41 232.5 -106.5t68.5 -175.5q0 -162 -118.5 -258.5t-305.5 -96.5q-276 0 -389 140q-71 90 -71 235z" />
<glyph unicode="t" horiz-adv-x="569" d="M29 922v149h145v299h180v-299h172v-149h-172v-697q0 -55 39 -73q23 -10 70 -11h63v-141l-135 -14q-123 0 -174 65q-43 55 -43 164v707h-145z" />
<glyph unicode="u" d="M139 301v770h180v-711q0 -125 60 -184q51 -51 147 -51q154 0 232 119q63 98 63 237v590h180v-1071h-170v156l-4 4q-59 -96 -137 -143.5t-203 -47.5q-141 0 -233 70q-115 86 -115 262z" />
<glyph unicode="v" horiz-adv-x="1024" d="M16 1071h209l279 -872l307 872h197l-408 -1071h-192z" />
<glyph unicode="w" horiz-adv-x="1478" d="M29 1071h196l205 -842l211 842h201l209 -842l221 842h180l-311 -1071h-187l-217 829l-213 -829h-186z" />
<glyph unicode="x" horiz-adv-x="1024" d="M23 0l376 551l-358 520h231l248 -377l248 377h221l-362 -520l377 -551h-230l-266 403l-258 -403h-227z" />
<glyph unicode="y" horiz-adv-x="1024" d="M23 1071h204l285 -872l291 872h198q-94 -262 -187 -522t-198 -529q-129 -328 -188 -393t-231 -65q-20 0 -41 6l-35 10v164q23 -8 47.5 -13t60.5 -5q68 0 99 40q25 33 92 207z" />
<glyph unicode="z" horiz-adv-x="1024" d="M63 0v141l646 781h-596v149h829v-147l-639 -774h658v-150h-898z" />
<glyph unicode="{" horiz-adv-x="684" d="M86 479v123q72 0 119 74t47 186v352q0 119 63.5 192t145.5 73h137v-133h-90q-49 0 -71.5 -46.5t-22.5 -121.5v-349q0 -131 -74 -215q-51 -57 -107 -71q86 -35 133.5 -113t47.5 -184v-346q0 -78 21.5 -123t72.5 -45h90v-133h-137q-84 0 -144 67q-66 76 -65 197v350 q0 115 -47 190.5t-119 75.5z" />
<glyph unicode="|" horiz-adv-x="532" d="M193 -39v1548h149v-1548h-149z" />
<glyph unicode="}" horiz-adv-x="684" d="M86 -268h90q51 0 72.5 46t21.5 122v346q0 137 74 221q47 53 107 72q-82 29 -131.5 108.5t-49.5 181.5v349q0 80 -20.5 124t-73.5 44h-90v133h137q84 0 146.5 -72t62.5 -193v-352q0 -113 47 -186.5t119 -73.5v-123q-72 0 -119 -75.5t-47 -190.5v-350q0 -119 -63.5 -191.5 t-145.5 -72.5h-137v133z" />
<glyph unicode="~" horiz-adv-x="1196" d="M125 483q41 80 92 121q68 55 164 55q51 0 111 -18q39 -12 116 -47q160 -74 209 -74q53 0 103 47q33 31 77 101l74 -115q-51 -82 -108 -125q-68 -51 -148 -51q-66 0 -133 29q-18 8 -75.5 39.5t-106.5 48.5q-66 23 -129 22q-59 0 -107 -47q-37 -37 -65 -100z" />
<glyph d="M74 279q0 111 49 186q82 125 276 149l297 37q43 4 64 25q31 29 31 102q0 174 -252 174q-135 0 -195 -71q-37 -45 -51 -136h-166q0 186 115.5 271.5t326.5 85.5q131 0 230 -45q168 -76 168 -254v-617q0 -63 59 -63l59 8v-131q-31 -8 -53 -14t-45 -6q-109 0 -156 51 q-35 39 -34 112q-68 -74 -142 -114q-106 -59 -245 -60q-150 0 -243 85.5t-93 224.5zM260 305q0 -186 195 -186q131 0 231 72.5t100 179.5v176q-23 -18 -82 -32.5t-215 -35.5q-96 -14 -147 -41q-82 -43 -82 -133zM233 1284v117h642v-117h-642z" />
<glyph d="M72 567q0 233 118.5 384t327.5 151q127 0 217 -68q47 -35 103 -114l4 14v536h180v-1470h-170v147q-55 -100 -145 -143q-72 -35 -164 -35q-248 0 -373 203q-98 159 -98 395zM258 539q0 -186 72.5 -300t216.5 -114q111 0 188 72q104 96 105 288q0 242 -82 355 q-74 100 -207 100q-180 0 -250 -149q-43 -92 -43 -252zM441 -375v209h186v-209h-186z" />
<glyph horiz-adv-x="681" d="M158 0v1071h170v-178q61 102 129 151q78 57 176 58q25 0 47 -6v-187h-68q-123 0 -198.5 -82t-75.5 -204v-623h-180zM158 -375v209h186v-209h-186z" />
<glyph horiz-adv-x="681" d="M96 1284v117h641v-117h-641zM158 0v1071h170v-178q61 102 129 151q78 57 176 58q25 0 47 -6v-187h-68q-123 0 -198.5 -82t-75.5 -204v-623h-180zM158 -166h186v-209h-186v209z" />
<glyph horiz-adv-x="1024" d="M66 344h174q0 -88 47 -141q70 -78 237 -78q109 0 172 39q74 45 74 131q0 61 -44 92t-169 62l-209 51q-119 29 -180 88q-68 66 -68 172q0 166 123 258q113 84 283 84q190 0 299.5 -94.5t109.5 -241.5h-174q0 72 -41 115q-63 66 -213 65q-74 0 -127 -24q-86 -39 -86 -127 q0 -61 45 -93q33 -23 150 -51l180 -45q164 -41 232.5 -106.5t68.5 -175.5q0 -162 -118.5 -258.5t-305.5 -96.5q-276 0 -389 140q-71 90 -71 235zM420 1214l182 289h221l-266 -289h-137z" />
<glyph horiz-adv-x="1024" d="M66 344h174q0 -88 47 -141q70 -78 237 -78q109 0 172 39q74 45 74 131q0 61 -44 92t-169 62l-209 51q-119 29 -180 88q-68 66 -68 172q0 166 123 258q113 84 283 84q190 0 299.5 -94.5t109.5 -241.5h-174q0 72 -41 115q-63 66 -213 65q-74 0 -127 -24q-86 -39 -86 -127 q0 -61 45 -93q33 -23 150 -51l180 -45q164 -41 232.5 -106.5t68.5 -175.5q0 -162 -118.5 -258.5t-305.5 -96.5q-276 0 -389 140q-71 90 -71 235zM414 -375v209h186v-209h-186z" />
<glyph horiz-adv-x="1478" d="M166 0v1470h596q283 0 450.5 -196.5t167.5 -517.5q0 -301 -131 -502q-166 -254 -495 -254h-588zM365 170h385q197 0 311.5 149.5t114.5 423.5q0 272 -117 414.5t-324 142.5h-370v-1130zM561 -375v209h186v-209h-186z" />
<glyph horiz-adv-x="1478" d="M158 0v1470h198v-608h768v608h199v-1470h-199v686h-768v-686h-198zM643 -375v209h186v-209h-186z" />
<glyph unicode="&#xa1;" horiz-adv-x="681" d="M242 86l49 635h100l49 -635v-485h-198v485zM242 862v209h198v-209h-198z" />
<glyph unicode="&#xa2;" d="M156 0v1470h198v-1294h746v-176h-944zM486 -375v209h186v-209h-186z" />
<glyph unicode="&#xa3;" d="M68 649v129h141q-45 94 -57 125q-31 82 -31 150q0 160 104 272q133 145 402 145q217 0 336 -137q104 -121 104 -299v-30h-180v18q0 131 -77 212t-204 81q-152 0 -231 -94q-61 -72 -62 -158q0 -55 26 -120.5t79 -164.5h342v-129h-283q6 -27 12.5 -55.5t6.5 -79.5 q0 -94 -60 -190q-66 -109 -188 -191l4 4q66 33 130 52.5t138 19.5q70 0 189.5 -36t154.5 -36q39 0 86 20.5t70 43.5l84 -135q-129 -98 -260 -99q-45 0 -256 62q-106 31 -172 30q-59 0 -117.5 -21.5t-122.5 -60.5l-100 142q141 94 205 217q45 88 45 166q0 25 -9.5 61.5 t-29.5 85.5h-219z" />
<glyph unicode="&#xa4;" horiz-adv-x="1705" d="M150 0v1470h284l420 -1243l422 1243h283v-1470h-193v868l4 367l-418 -1235h-196l-414 1233v-365v-868h-192zM760 1636v209h186v-209h-186z" />
<glyph unicode="&#xa5;" horiz-adv-x="1478" d="M156 0v1470h235l735 -1187l4 1187h193v-1470h-223l-748 1188l-4 -1188h-192zM645 1636v209h186v-209h-186z" />
<glyph unicode="&#xa6;" horiz-adv-x="1478" d="M156 0v1470h235l735 -1187l4 1187h193v-1470h-223l-748 1188l-4 -1188h-192zM637 -375v209h186v-209h-186z" />
<glyph unicode="&#xa7;" d="M88 633q0 121 57 201q45 63 148 122q-53 57 -74.5 102.5t-21.5 102.5q0 133 82 230q102 119 286 118q152 0 250 -73q127 -96 127 -301h-174q0 84 -29 133q-49 86 -174 86q-70 0 -123 -37q-66 -45 -65 -129q0 -55 39 -101q33 -37 110 -83l299 -177q109 -63 158 -127 q66 -84 66 -200q0 -117 -66 -203q-49 -63 -145 -125q55 -59 80.5 -108.5t25.5 -124.5q0 -150 -119 -244q-109 -86 -252 -86q-182 0 -286 90q-117 100 -117 295h180q0 -86 29 -139q49 -90 170 -91q82 0 135 29q80 43 80 141q0 49 -27.5 87t-85.5 75l-430 287q-74 49 -108 129 q-25 58 -25 121zM258 678q0 -72 35 -121q23 -33 57 -53l387 -250q88 57 115 104.5t27 102.5q0 61 -35 111.5t-92 84.5l-357 220q-63 -33 -100 -81t-37 -118z" />
<glyph unicode="&#xa8;" horiz-adv-x="681" d="M82 1237v209h186v-209h-186zM414 1237v209h186v-209h-186z" />
<glyph unicode="&#xa9;" horiz-adv-x="1509" d="M-29 737q0 330 231.5 551t555.5 221q322 0 552 -222t230 -550q0 -334 -228.5 -555t-553.5 -221q-326 0 -553 219q-234 225 -234 557zM127 737q0 -276 181 -461.5t450 -185.5q266 0 446 184.5t180 462.5q0 272 -181 457.5t-445 185.5q-266 0 -448.5 -184.5t-182.5 -458.5z M328 739q0 209 120.5 341t327.5 132q152 0 259.5 -85t127.5 -236h-137q-18 84 -85 135t-163 51q-139 0 -217 -94t-78 -242q0 -145 82 -244.5t219 -99.5q96 0 162 53.5t80 141.5h139q-29 -154 -132 -242t-249 -88q-205 0 -330.5 136t-125.5 341z" />
<glyph unicode="&#xaa;" horiz-adv-x="757" d="M49 1016q0 70 35 117q57 76 195 92l180 20q23 4 36 20.5t13 57.5q0 35 -38 57.5t-118 22.5q-72 0 -110.5 -25.5t-46.5 -83.5h-111q0 109 78 162t211 53q86 0 149 -26q111 -47 111 -154v-364q0 -39 37 -39l39 4v-90l-36 -7q-15 -3 -30 -4q-72 0 -97.5 27t-25.5 78 q-59 -59 -117.5 -82t-134.5 -23q-96 0 -157.5 51.5t-61.5 135.5zM72 623v98h606v-98h-606zM178 1038q0 -49 26.5 -75.5t92.5 -26.5q86 0 148.5 43t62.5 108v80q-12 -12 -48 -20t-141 -21q-61 -6 -92 -20q-49 -23 -49 -68z" />
<glyph unicode="&#xab;" d="M199 473v189l321 251v-180l-215 -166l215 -166v-180zM618 473v189l322 251v-180l-215 -166l215 -166v-180z" />
<glyph unicode="&#xac;" horiz-adv-x="1478" d="M180 0v1470h680q211 0 332 -79q152 -100 151 -316q0 -145 -65 -235q-45 -61 -139 -117q86 -35 118 -74q57 -66 58 -203l12 -266q0 -63 13.5 -92t60.5 -55v-33h-244q-18 61 -26.5 173t-8.5 196q0 119 -41 176q-61 86 -221 86h-481v-631h-199zM379 801h461q135 0 204 45 q94 59 95 209q0 150 -95 207q-63 39 -170 38h-495v-499zM656 -375v209h186v-209h-186z" />
<glyph unicode="&#xad;" horiz-adv-x="1478" d="M180 0v1470h680q211 0 332 -79q152 -100 151 -316q0 -145 -65 -235q-45 -61 -139 -117q86 -35 118 -74q57 -66 58 -203l12 -266q0 -63 13.5 -92t60.5 -55v-33h-244q-18 61 -26.5 173t-8.5 196q0 119 -41 176q-61 86 -221 86h-481v-631h-199zM379 801h461q135 0 204 45 q94 59 95 209q0 150 -95 207q-63 39 -170 38h-495v-499zM412 1683v117h641v-117h-641zM655 -166h187v-209h-187v209z" />
<glyph unicode="&#xae;" horiz-adv-x="1366" d="M100 475h187q0 -182 131 -272q104 -72 274 -72q199 0 299 74q86 63 86 174q0 113 -64.5 165t-248.5 95l-301 70q-121 29 -193 84q-121 94 -120 262q0 190 118 313q137 141 387 141q338 0 480 -174q94 -115 94 -295h-187q0 156 -118 234q-98 66 -246 65q-131 0 -215 -45 q-121 -66 -121 -213q0 -86 53 -131q43 -37 121 -55l420 -96q154 -37 238 -125q96 -102 96 -268q0 -236 -193 -353q-154 -92 -383 -92q-182 0 -299 47q-76 31 -145 94q-86 78 -118 168t-32 205zM598 1613l182 289h221l-266 -289h-137z" />
<glyph unicode="&#xaf;" horiz-adv-x="681" d="M20 1284v117h642v-117h-642z" />
<glyph unicode="&#xb0;" horiz-adv-x="681" d="M154 1360q0 82 53 135t135 53t135 -53t53 -135t-53 -135.5t-135 -53.5t-135 53.5t-53 135.5zM236 1360q0 -45 30.5 -76t75.5 -31t76 31t31 76t-31 75.5t-76 30.5t-75.5 -30.5t-30.5 -75.5z" />
<glyph unicode="&#xb1;" horiz-adv-x="1366" d="M100 475h187q0 -182 131 -272q104 -72 274 -72q199 0 299 74q86 63 86 174q0 113 -64.5 165t-248.5 95l-301 70q-121 29 -193 84q-121 94 -120 262q0 190 118 313q137 141 387 141q338 0 480 -174q94 -115 94 -295h-187q0 156 -118 234q-98 66 -246 65q-131 0 -215 -45 q-121 -66 -121 -213q0 -86 53 -131q43 -37 121 -55l420 -96q154 -37 238 -125q96 -102 96 -268q0 -236 -193 -353q-154 -92 -383 -92q-182 0 -299 47q-76 31 -145 94q-86 78 -118 168t-32 205zM570 -375v209h186v-209h-186z" />
<glyph unicode="&#xb2;" horiz-adv-x="681" d="M8 575q0 125 62 213q51 74 151 130l123 67q82 43 100 57q74 53 74 144q6 55 -31 90q-45 45 -141 45q-111 0 -156 -76q-29 -49 -28 -115h-123q0 184 123 261q80 49 200 49q131 0 215.5 -70t84.5 -188q0 -127 -105 -209q-45 -35 -139 -82l-92 -47q-63 -35 -107 -74 q-35 -33 -57 -70h500v-125h-654z" />
<glyph unicode="&#xb3;" horiz-adv-x="681" d="M10 840h140q0 -72 28 -111q43 -57 148 -57q92 0 144 35.5t52 109.5q0 94 -76 127q-47 20 -135 21h-47v104h55q76 0 117 27q51 35 51 110q0 45 -28 74q-41 41 -135 41q-92 0 -134 -55q-33 -43 -32 -109h-125q0 115 61 189q80 94 248 94q133 0 211 -63.5t78 -164.5 q0 -76 -41 -125q-33 -41 -80 -53q76 -23 116 -71t40 -132q0 -119 -78 -192q-90 -86 -264 -86q-51 0 -92.5 10t-79.5 29q-72 35 -107 101.5t-35 146.5z" />
<glyph unicode="&#xb4;" horiz-adv-x="681" d="M250 1214l182 289h221l-266 -289h-137z" />
<glyph unicode="&#xb5;" horiz-adv-x="1251" d="M29 1294v176h1194v-176h-498v-1294h-199v1294h-497zM529 -375v209h186v-209h-186z" />
<glyph unicode="&#xb6;" horiz-adv-x="1478" d="M162 489v981h198v-925q0 -219 119 -324q96 -84 254 -84q162 0 262 82q125 102 125 322v929h199v-954q0 -242 -143 -391q-158 -164 -449 -164q-281 0 -430 160q-135 143 -135 368zM419 1683v117h642v-117h-642z" />
<glyph unicode="&#xb7;" horiz-adv-x="1935" d="M41 1026q109 0 242 -55q43 -18 112 -56l8 177l7 198q98 -25 198 -59q125 -45 191 -82q35 55 80 113q33 41 84 100q51 -57 85.5 -102.5t77.5 -110.5q59 35 181.5 78t208.5 63l6 -198l10 -177q68 37 110 56q133 55 242 55q-20 -45 -96 -319q-51 -184 -125 -232 q78 -27 129 -125q43 -88 88 -174q-109 0 -240 25q-43 8 -110 24l-8 -75q-4 -25 -10.5 -63t-6.5 -50q-94 12 -205.5 32.5t-179.5 41.5l-80 -62v-231q0 -27 -20.5 -43.5t-56.5 -16.5q-35 0 -55.5 16.5t-20.5 43.5v231l-80 62q-49 -14 -184.5 -40t-202.5 -34q0 12 -7 53t-7 60 l-9 75q-68 -16 -110 -24q-133 -25 -242 -25q59 119 88 174q51 98 129 125q-74 47 -125 230q-78 278 -96 321zM100 983q27 -57 76 -242q68 -254 172 -254h150q-49 33 -73 85.5t-29 102.5t-5 144v49q-90 47 -112 58q-70 30 -179 57zM115 213q106 14 163.5 23.5t112.5 23.5 q-2 12 -2 27v20q0 59 33 99q25 31 76 45h-150q-94 0 -141 -80t-92 -158zM438 295q0 -37 11 -119l12 -98q76 10 155.5 26.5t155.5 36.5q-70 55 -110.5 110.5t-40.5 100.5q0 72 104 101l-70 -2q-125 0 -171 -39t-46 -117zM442 803q0 -160 39 -230q47 -86 174 -86h90 q-63 29 -95 83.5t-32 121.5q0 86 46 203q39 100 112 219q-61 35 -149 67.5t-170 53.5q0 -100 -7.5 -252.5t-7.5 -179.5zM670 692q0 -96 69.5 -150.5t223.5 -54.5t223 54.5t69 150.5q0 92 -55 217q-70 160 -237 396q-125 -176 -197 -314q-96 -184 -96 -299zM674 352 q0 -55 82 -139q72 -74 207 -166q135 94 206 166q82 84 82 139q0 47 -69.5 73t-218.5 26q-150 0 -219.5 -26t-69.5 -73zM932 18v-200q0 -6 10 -14.5t21 -8.5q31 0 30 23v200l-30 -20zM1149 1114q72 -117 115 -225.5t43 -196.5q0 -70 -30 -122t-95 -83h88q127 0 174 84 q39 70 39 230q0 63 -4 147q-10 211 -11 287q-92 -23 -171.5 -52.5t-147.5 -68.5zM1153 141q82 -23 155.5 -38t155.5 -25q4 53 14.5 122.5t10.5 96.5q0 80 -41 113q-49 41 -178 41l-70 2q106 -29 107 -101q0 -45 -40 -98.5t-114 -112.5zM1430 451q51 -16 73 -45 q33 -35 33 -99v-28q-2 -12 -2 -19q59 -14 113.5 -23.5t162.5 -23.5q-59 109 -88 156q-49 82 -145 82h-147zM1430 487h147q96 0 147.5 167t100.5 329q-102 -25 -176 -57q-20 -8 -115 -58v-92q0 -74 -5 -112.5t-27.5 -91t-71.5 -85.5z" />
<glyph unicode="&#xb8;" horiz-adv-x="681" d="M92 -416l35 82q41 -16 69.5 -23.5t63.5 -7.5q61 0 88 23t27 63q0 43 -33 61.5t-66 18.5q-23 0 -79 -16l-35 39l131 176h96l-94 -127q45 8 63 8q90 0 136 -51q37 -43 36 -102q0 -82 -65.5 -135.5t-175.5 -53.5q-51 0 -101.5 13.5t-95.5 31.5z" />
<glyph unicode="&#xb9;" horiz-adv-x="681" d="M88 1182v94q119 0 172 30.5t80 133.5h115v-865h-146v607h-221z" />
<glyph unicode="&#xba;" horiz-adv-x="747" d="M51 1169q0 182 105 271q82 70 219 69q135 0 219 -69q104 -86 104 -271q0 -182 -104 -270q-82 -70 -219 -70q-135 0 -219 70q-105 86 -105 270zM72 623v98h606v-98h-606zM188 1169q0 -92 31 -147q47 -86 156 -86q82 0 129 51q57 63 57 182q0 92 -31 148q-47 86 -155 86 q-82 0 -129 -51q-58 -64 -58 -183z" />
<glyph unicode="&#xbb;" d="M199 221v180l215 166l-215 166v180l321 -251v-189zM618 221v180l216 166l-216 166v180l322 -251v-189z" />
<glyph unicode="&#xbc;" horiz-adv-x="1708" d="M150 1188v88q119 0 172 30.5t79 133.5h109v-865h-139v613h-221zM315 -39l906 1479h116l-905 -1479h-117zM858 193v122l422 549h131v-553h137v-118h-137v-193h-131v193h-422zM985 311h295v383z" />
<glyph unicode="&#xbd;" horiz-adv-x="1708" d="M88 1182v94q119 0 172 30.5t80 133.5h115v-865h-146v607h-221zM242 -39l905 1479h117l-906 -1479h-116zM930 0q0 125 61 213q51 74 152 129l123 68q82 43 100 57q74 53 74 143q6 55 -31 90q-45 45 -141 45q-111 0 -156 -75q-29 -49 -29 -115h-122q0 184 122 260 q80 49 201 49q131 0 215 -69.5t84 -188.5q0 -127 -104 -209q-45 -35 -140 -82l-92 -47q-63 -35 -106 -73q-35 -33 -58 -70h500v-125h-653z" />
<glyph unicode="&#xbe;" horiz-adv-x="593" d="M102 748q0 -182 37 -254q23 -41 76 -64q-43 -14 -67.5 -50t-24.5 -73t76.5 -142.5t76.5 -164.5h41q0 61 77 166.5t77 140.5q0 47 -35 84q-27 29 -57 39q55 23 76 62q37 72 37 256v614h-52v-614q0 -162 -28.5 -219.5t-114.5 -57.5q-82 0 -112.5 58.5t-30.5 218.5v614h-52 v-614zM174 307q0 41 43 72t80 31t80 -30t43 -73q0 -29 -35 -74q-86 -111 -88 -120q-2 12 -86 118q-37 47 -37 76z" />
<glyph unicode="&#xbf;" horiz-adv-x="1251" d="M186 -10q0 98 43 170q35 59 150 168q88 84 113 118q66 88 65 256h180q0 -164 -43 -251q-33 -66 -151 -189q-90 -94 -111 -119q-53 -68 -53 -166q0 -84 49 -147q68 -86 199 -86q168 0 233 129q39 76 39 195h180q0 -127 -24 -201q-35 -106 -137 -184q-57 -45 -137.5 -70 t-159.5 -25q-182 0 -304 103q-131 111 -131 299zM543 866v209h198v-209h-198z" />
<glyph unicode="&#xc0;" horiz-adv-x="1366" d="M29 0l553 1470h225l532 -1470h-217l-145 428h-590l-154 -428h-204zM449 604h456l-217 647zM371 1902h221l182 -289h-137z" />
<glyph unicode="&#xc1;" horiz-adv-x="1366" d="M29 0l553 1470h225l532 -1470h-217l-145 428h-590l-154 -428h-204zM449 604h456l-217 647zM592 1613l182 289h221l-266 -289h-137z" />
<glyph unicode="&#xc2;" horiz-adv-x="1366" d="M29 0l553 1470h225l532 -1470h-217l-145 428h-590l-154 -428h-204zM449 604h456l-217 647zM385 1613l203 289h190l203 -289h-164l-135 191l-135 -191h-162z" />
<glyph unicode="&#xc3;" horiz-adv-x="1366" d="M29 0l553 1470h225l532 -1470h-217l-145 428h-590l-154 -428h-204zM449 604h456l-217 647zM334 1640q14 102 59 156q53 63 154 63q39 0 64.5 -6t74.5 -24l45 -19q63 -27 96 -27q53 0 78 33q16 20 25 62h102q-12 -96 -65.5 -160t-139.5 -64q-25 0 -48 5.5t-72 21.5l-54 18 q-49 16 -76.5 23.5t-48.5 7.5q-68 0 -96 -90h-98z" />
<glyph unicode="&#xc4;" horiz-adv-x="1366" d="M29 0l553 1470h225l532 -1470h-217l-145 428h-590l-154 -428h-204zM449 604h456l-217 647zM424 1636v209h186v-209h-186zM756 1636v209h186v-209h-186z" />
<glyph unicode="&#xc5;" horiz-adv-x="1366" d="M29 0l553 1470h225l532 -1470h-217l-145 428h-590l-154 -428h-204zM449 604h456l-217 647zM496 1718q0 82 53 135t135 53t135 -53t53 -135t-53 -135.5t-135 -53.5t-135 53.5t-53 135.5zM578 1718q0 -45 30.5 -76t75.5 -31t76 31t31 76t-31 75.5t-76 30.5t-75.5 -30.5 t-30.5 -75.5z" />
<glyph unicode="&#xc6;" horiz-adv-x="2048" d="M16 0l598 1470h1319v-176h-798v-450h729v-176h-729v-492h813v-176h-1012v428h-543l-162 -428h-215zM465 604h471v690h-199z" />
<glyph unicode="&#xc7;" horiz-adv-x="1478" d="M90 743q0 344 184.5 555t501.5 211q266 0 432 -147q150 -133 172 -334h-192q-37 174 -172 250q-98 55 -240 55q-211 0 -340 -145q-141 -158 -141 -438q0 -283 106 -437q123 -176 381 -176q133 0 232 72q143 104 188 332h193q-37 -250 -178 -398q-106 -111 -267 -155 q-94 -27 -198 -27q-281 0 -457 178q-205 207 -205 604zM491 -416l35 82q41 -16 69.5 -23.5t63.5 -7.5q61 0 88 23t27 63q0 43 -33 61.5t-66 18.5q-23 0 -79 -16l-35 39l131 176h96l-94 -127q45 8 63 8q90 0 136 -51q37 -43 36 -102q0 -82 -65.5 -135.5t-175.5 -53.5 q-51 0 -101.5 13.5t-95.5 31.5z" />
<glyph unicode="&#xc8;" horiz-adv-x="1366" d="M176 0v1470h1071v-176h-872v-450h805v-176h-805v-492h887v-176h-1086zM371 1902h221l182 -289h-137z" />
<glyph unicode="&#xc9;" horiz-adv-x="1366" d="M176 0v1470h1071v-176h-872v-450h805v-176h-805v-492h887v-176h-1086zM592 1613l182 289h221l-266 -289h-137z" />
<glyph unicode="&#xca;" horiz-adv-x="1366" d="M176 0v1470h1071v-176h-872v-450h805v-176h-805v-492h887v-176h-1086zM385 1613l203 289h190l203 -289h-164l-135 191l-135 -191h-162z" />
<glyph unicode="&#xcb;" horiz-adv-x="1366" d="M176 0v1470h1071v-176h-872v-450h805v-176h-805v-492h887v-176h-1086zM424 1636v209h186v-209h-186zM756 1636v209h186v-209h-186z" />
<glyph unicode="&#xcc;" horiz-adv-x="569" d="M186 0v1470h199v-1470h-199zM-26 1902h221l182 -289h-137z" />
<glyph unicode="&#xcd;" horiz-adv-x="569" d="M186 0v1470h199v-1470h-199zM195 1613l182 289h221l-266 -289h-137z" />
<glyph unicode="&#xce;" horiz-adv-x="569" d="M186 0v1470h199v-1470h-199zM-12 1613l203 289h190l203 -289h-164l-135 191l-135 -191h-162z" />
<glyph unicode="&#xcf;" horiz-adv-x="569" d="M186 0v1470h199v-1470h-199zM27 1636v209h186v-209h-186zM359 1636v209h186v-209h-186z" />
<glyph unicode="&#xd0;" horiz-adv-x="1478" d="M0 668v176h166v626h596q283 0 450.5 -196.5t167.5 -517.5q0 -129 -28 -250q-49 -209 -170 -336q-162 -170 -428 -170h-588v668h-166zM365 170h385q197 0 311.5 149.5t114.5 423.5q0 272 -117 414.5t-324 142.5h-370v-456h393v-176h-393v-498z" />
<glyph unicode="&#xd1;" horiz-adv-x="1478" d="M156 0v1470h235l735 -1187l4 1187h193v-1470h-223l-748 1188l-4 -1188h-192zM412 1640q14 102 59 156q53 63 154 63q39 0 64.5 -6t74.5 -24l45 -19q63 -27 96 -27q53 0 78 33q16 20 25 62h102q-12 -96 -65.5 -160t-139.5 -64q-25 0 -48 5.5t-72 21.5l-54 18 q-49 16 -76.5 23.5t-48.5 7.5q-68 0 -96 -90h-98z" />
<glyph unicode="&#xd2;" horiz-adv-x="1593" d="M80 735q0 295 151 506q193 268 566 268q371 0 563 -268q154 -213 153 -506q0 -295 -151 -506q-193 -268 -565 -268q-371 0 -564 268q-153 213 -153 506zM285 735q0 -264 138 -431t374 -167t374 167t138 431t-135 428q-141 170 -377 170t-374 -167t-138 -431zM486 1902 h221l182 -289h-137z" />
<glyph unicode="&#xd3;" horiz-adv-x="1593" d="M80 735q0 295 151 506q193 268 566 268q371 0 563 -268q154 -213 153 -506q0 -295 -151 -506q-193 -268 -565 -268q-371 0 -564 268q-153 213 -153 506zM285 735q0 -264 138 -431t374 -167t374 167t138 431t-135 428q-141 170 -377 170t-374 -167t-138 -431zM707 1613 l182 289h221l-266 -289h-137z" />
<glyph unicode="&#xd4;" horiz-adv-x="1593" d="M80 735q0 295 151 506q193 268 566 268q371 0 563 -268q154 -213 153 -506q0 -295 -151 -506q-193 -268 -565 -268q-371 0 -564 268q-153 213 -153 506zM285 735q0 -264 138 -431t374 -167t374 167t138 431t-135 428q-141 170 -377 170t-374 -167t-138 -431zM500 1613 l203 289h190l203 -289h-164l-135 191l-135 -191h-162z" />
<glyph unicode="&#xd5;" horiz-adv-x="1593" d="M80 735q0 295 151 506q193 268 566 268q371 0 563 -268q154 -213 153 -506q0 -295 -151 -506q-193 -268 -565 -268q-371 0 -564 268q-153 213 -153 506zM285 735q0 -264 138 -431t374 -167t374 167t138 431t-135 428q-141 170 -377 170t-374 -167t-138 -431zM449 1640 q14 102 59 156q53 63 154 63q39 0 64.5 -6t74.5 -24l45 -19q63 -27 96 -27q53 0 78 33q16 20 25 62h102q-12 -96 -65.5 -160t-139.5 -64q-25 0 -48 5.5t-72 21.5l-54 18q-49 16 -76.5 23.5t-48.5 7.5q-68 0 -96 -90h-98z" />
<glyph unicode="&#xd6;" horiz-adv-x="1593" d="M80 735q0 295 151 506q193 268 566 268q371 0 563 -268q154 -213 153 -506q0 -295 -151 -506q-193 -268 -565 -268q-371 0 -564 268q-153 213 -153 506zM285 735q0 -264 138 -431t374 -167t374 167t138 431t-135 428q-141 170 -377 170t-374 -167t-138 -431zM539 1636 v209h186v-209h-186zM871 1636v209h186v-209h-186z" />
<glyph unicode="&#xd7;" horiz-adv-x="1566" d="M102 0h1362v1362h-1362v-1362zM195 92v1178h1177v-1178h-1177z" />
<glyph unicode="&#xd8;" horiz-adv-x="1593" d="M80 735q0 295 151 506q193 268 566 268q162 0 281.5 -47t207.5 -135l166 182l64 -61l-170 -186q84 -109 129 -261q39 -133 38 -266q0 -295 -151 -506q-193 -268 -565 -268q-154 0 -275 47t-209 131l-163 -178l-66 57l170 185q-90 113 -132 253t-42 279zM285 735 q0 -223 104 -385l766 834q-66 72 -157 110.5t-201 38.5q-236 0 -374 -167t-138 -431zM444 283q66 -70 155 -108t198 -38q236 0 374 167t138 431q0 225 -101 377z" />
<glyph unicode="&#xd9;" horiz-adv-x="1478" d="M162 489v981h198v-925q0 -219 119 -324q96 -84 254 -84q162 0 262 82q125 102 125 322v929h199v-954q0 -242 -143 -391q-158 -164 -449 -164q-281 0 -430 160q-135 143 -135 368zM428 1902h221l182 -289h-137z" />
<glyph unicode="&#xda;" horiz-adv-x="1478" d="M162 489v981h198v-925q0 -219 119 -324q96 -84 254 -84q162 0 262 82q125 102 125 322v929h199v-954q0 -242 -143 -391q-158 -164 -449 -164q-281 0 -430 160q-135 143 -135 368zM649 1613l182 289h221l-266 -289h-137z" />
<glyph unicode="&#xdb;" horiz-adv-x="1478" d="M162 489v981h198v-925q0 -219 119 -324q96 -84 254 -84q162 0 262 82q125 102 125 322v929h199v-954q0 -242 -143 -391q-158 -164 -449 -164q-281 0 -430 160q-135 143 -135 368zM442 1613l203 289h190l203 -289h-164l-135 191l-135 -191h-162z" />
<glyph unicode="&#xdc;" horiz-adv-x="1478" d="M162 489v981h198v-925q0 -219 119 -324q96 -84 254 -84q162 0 262 82q125 102 125 322v929h199v-954q0 -242 -143 -391q-158 -164 -449 -164q-281 0 -430 160q-135 143 -135 368zM481 1636v209h186v-209h-186zM813 1636v209h186v-209h-186z" />
<glyph unicode="&#xdd;" horiz-adv-x="1366" d="M29 1470h231l422 -706l422 706h233l-555 -878v-592h-198v592zM592 1613l182 289h221l-266 -289h-137z" />
<glyph unicode="&#xde;" horiz-adv-x="1366" d="M176 0v1470h199v-243h463q201 0 318.5 -116t117.5 -298q0 -176 -98 -295q-117 -141 -338 -141h-463v-377h-199zM375 547h395q143 0 217 57q82 63 82 207q0 131 -84 193q-74 53 -207 53h-403v-510z" />
<glyph unicode="&#xdf;" horiz-adv-x="1251" d="M137 0v1090q0 182 124 291.5t349 109.5t357.5 -100.5t132.5 -268.5q0 -129 -66 -215q-33 -43 -102 -88q106 -29 176 -135q61 -94 61 -197q0 -260 -147 -395q-135 -123 -369 -123q-41 0 -65 4q-29 8 -43 11v153l90 -6q348 0 348 307q0 154 -90 220.5t-258 66.5 q-47 0 -80 -8v162l47 -5q170 0 250 70q68 59 68 162q0 102 -81 165.5t-231 63.5q-162 0 -231 -80q-59 -70 -60 -211v-1044h-180z" />
<glyph unicode="&#xe0;" d="M74 279q0 111 49 186q82 125 276 149l297 37q43 4 64 25q31 29 31 102q0 174 -252 174q-135 0 -195 -71q-37 -45 -51 -136h-166q0 186 115.5 271.5t326.5 85.5q131 0 230 -45q168 -76 168 -254v-617q0 -63 59 -63l59 8v-131q-31 -8 -53 -14t-45 -6q-109 0 -156 51 q-35 39 -34 112q-68 -74 -142 -114q-106 -59 -245 -60q-150 0 -243 85.5t-93 224.5zM260 305q0 -186 195 -186q131 0 231 72.5t100 179.5v176q-23 -18 -82 -32.5t-215 -35.5q-96 -14 -147 -41q-82 -43 -82 -133zM258 1503h221l182 -289h-137z" />
<glyph unicode="&#xe1;" d="M74 279q0 111 49 186q82 125 276 149l297 37q43 4 64 25q31 29 31 102q0 174 -252 174q-135 0 -195 -71q-37 -45 -51 -136h-166q0 186 115.5 271.5t326.5 85.5q131 0 230 -45q168 -76 168 -254v-617q0 -63 59 -63l59 8v-131q-31 -8 -53 -14t-45 -6q-109 0 -156 51 q-35 39 -34 112q-68 -74 -142 -114q-106 -59 -245 -60q-150 0 -243 85.5t-93 224.5zM260 305q0 -186 195 -186q131 0 231 72.5t100 179.5v176q-23 -18 -82 -32.5t-215 -35.5q-96 -14 -147 -41q-82 -43 -82 -133zM479 1214l182 289h221l-266 -289h-137z" />
<glyph unicode="&#xe2;" d="M74 279q0 111 49 186q82 125 276 149l297 37q43 4 64 25q31 29 31 102q0 174 -252 174q-135 0 -195 -71q-37 -45 -51 -136h-166q0 186 115.5 271.5t326.5 85.5q131 0 230 -45q168 -76 168 -254v-617q0 -63 59 -63l59 8v-131q-31 -8 -53 -14t-45 -6q-109 0 -156 51 q-35 39 -34 112q-68 -74 -142 -114q-106 -59 -245 -60q-150 0 -243 85.5t-93 224.5zM260 305q0 -186 195 -186q131 0 231 72.5t100 179.5v176q-23 -18 -82 -32.5t-215 -35.5q-96 -14 -147 -41q-82 -43 -82 -133zM272 1214l203 289h190l203 -289h-164l-135 191l-135 -191 h-162z" />
<glyph unicode="&#xe3;" d="M74 279q0 111 49 186q82 125 276 149l297 37q43 4 64 25q31 29 31 102q0 174 -252 174q-135 0 -195 -71q-37 -45 -51 -136h-166q0 186 115.5 271.5t326.5 85.5q131 0 230 -45q168 -76 168 -254v-617q0 -63 59 -63l59 8v-131q-31 -8 -53 -14t-45 -6q-109 0 -156 51 q-35 39 -34 112q-68 -74 -142 -114q-106 -59 -245 -60q-150 0 -243 85.5t-93 224.5zM260 305q0 -186 195 -186q131 0 231 72.5t100 179.5v176q-23 -18 -82 -32.5t-215 -35.5q-96 -14 -147 -41q-82 -43 -82 -133zM201 1241q14 102 59 156q53 63 154 63q39 0 64.5 -6t74.5 -24 l45 -19q63 -27 96 -27q53 0 78 33q16 20 25 62h102q-12 -96 -65.5 -160t-139.5 -64q-25 0 -48 5.5t-72 21.5l-54 18q-49 16 -76.5 23.5t-48.5 7.5q-68 0 -96 -90h-98z" />
<glyph unicode="&#xe4;" d="M74 279q0 111 49 186q82 125 276 149l297 37q43 4 64 25q31 29 31 102q0 174 -252 174q-135 0 -195 -71q-37 -45 -51 -136h-166q0 186 115.5 271.5t326.5 85.5q131 0 230 -45q168 -76 168 -254v-617q0 -63 59 -63l59 8v-131q-31 -8 -53 -14t-45 -6q-109 0 -156 51 q-35 39 -34 112q-68 -74 -142 -114q-106 -59 -245 -60q-150 0 -243 85.5t-93 224.5zM260 305q0 -186 195 -186q131 0 231 72.5t100 179.5v176q-23 -18 -82 -32.5t-215 -35.5q-96 -14 -147 -41q-82 -43 -82 -133zM311 1237v209h186v-209h-186zM643 1237v209h186v-209h-186z " />
<glyph unicode="&#xe5;" d="M74 279q0 111 49 186q82 125 276 149l297 37q43 4 64 25q31 29 31 102q0 174 -252 174q-135 0 -195 -71q-37 -45 -51 -136h-166q0 186 115.5 271.5t326.5 85.5q131 0 230 -45q168 -76 168 -254v-617q0 -63 59 -63l59 8v-131q-31 -8 -53 -14t-45 -6q-109 0 -156 51 q-35 39 -34 112q-68 -74 -142 -114q-106 -59 -245 -60q-150 0 -243 85.5t-93 224.5zM260 305q0 -186 195 -186q131 0 231 72.5t100 179.5v176q-23 -18 -82 -32.5t-215 -35.5q-96 -14 -147 -41q-82 -43 -82 -133zM383 1360q0 82 53 135t135 53t135 -53t53 -135t-53 -135.5 t-135 -53.5t-135 53.5t-53 135.5zM465 1360q0 -45 30.5 -76t75.5 -31t76 31t31 76t-31 75.5t-76 30.5t-75.5 -30.5t-30.5 -75.5z" />
<glyph unicode="&#xe6;" horiz-adv-x="1820" d="M74 279q0 111 49 186q82 125 276 149l297 37q43 4 64 25q31 29 31 102q0 174 -252 174q-135 0 -195 -71q-37 -45 -51 -136h-166q0 186 115.5 271.5t326.5 85.5q109 0 182.5 -27.5t166.5 -124.5q74 70 118 97q98 55 238 55q227 0 344 -167t117 -458h-783q0 -170 79 -261 t233 -91q117 0 202 76q74 66 74 135h180q-8 -59 -45 -131q-53 -100 -145 -162q-51 -35 -98 -49q-78 -25 -193 -25q-166 0 -276 84q-68 51 -117 140q-76 -115 -183.5 -169.5t-252.5 -54.5q-150 0 -243 85.5t-93 224.5zM260 305q0 -186 195 -186q131 0 231 72.5t100 179.5v176 q-23 -18 -82 -32.5t-215 -35.5q-96 -14 -147 -41q-82 -43 -82 -133zM952 621h596q0 139 -65 221q-78 98 -234 98q-123 0 -210 -95t-87 -224z" />
<glyph unicode="&#xe7;" horiz-adv-x="1024" d="M61 506q0 264 123 422q135 174 391 174q197 0 306 -125q96 -111 96 -266h-174q-16 111 -80 170t-174 59q-156 0 -232 -129q-63 -106 -63 -274q0 -174 53 -275q72 -137 240 -137q92 0 162.5 66.5t93.5 187.5h174q-18 -162 -107 -268q-117 -141 -329 -142 q-221 0 -350.5 149.5t-129.5 387.5zM264 -416l35 82q41 -16 69.5 -23.5t63.5 -7.5q61 0 88 23t27 63q0 43 -33 61.5t-66 18.5q-23 0 -79 -16l-35 39l131 176h96l-94 -127q45 8 63 8q90 0 136 -51q37 -43 36 -102q0 -82 -65.5 -135.5t-175.5 -53.5q-51 0 -101.5 13.5 t-95.5 31.5z" />
<glyph unicode="&#xe8;" d="M82 506q0 264 123 422q135 174 391 174q227 0 344 -167t117 -458h-783q0 -170 79 -261t233 -91q117 0 202 76q74 66 74 135h180q-8 -59 -45 -131q-53 -100 -145 -162q-51 -35 -98 -49q-78 -25 -193 -25q-221 0 -350 149.5t-129 387.5zM274 621h596q0 139 -65 221 q-78 98 -234 98q-123 0 -210 -95t-87 -224zM258 1503h221l182 -289h-137z" />
<glyph unicode="&#xe9;" d="M82 506q0 264 123 422q135 174 391 174q227 0 344 -167t117 -458h-783q0 -170 79 -261t233 -91q117 0 202 76q74 66 74 135h180q-8 -59 -45 -131q-53 -100 -145 -162q-51 -35 -98 -49q-78 -25 -193 -25q-221 0 -350 149.5t-129 387.5zM274 621h596q0 139 -65 221 q-78 98 -234 98q-123 0 -210 -95t-87 -224zM479 1214l182 289h221l-266 -289h-137z" />
<glyph unicode="&#xea;" d="M82 506q0 264 123 422q135 174 391 174q227 0 344 -167t117 -458h-783q0 -170 79 -261t233 -91q117 0 202 76q74 66 74 135h180q-8 -59 -45 -131q-53 -100 -145 -162q-51 -35 -98 -49q-78 -25 -193 -25q-221 0 -350 149.5t-129 387.5zM274 621h596q0 139 -65 221 q-78 98 -234 98q-123 0 -210 -95t-87 -224zM272 1214l203 289h190l203 -289h-164l-135 191l-135 -191h-162z" />
<glyph unicode="&#xeb;" d="M82 506q0 264 123 422q135 174 391 174q227 0 344 -167t117 -458h-783q0 -170 79 -261t233 -91q117 0 202 76q74 66 74 135h180q-8 -59 -45 -131q-53 -100 -145 -162q-51 -35 -98 -49q-78 -25 -193 -25q-221 0 -350 149.5t-129 387.5zM274 621h596q0 139 -65 221 q-78 98 -234 98q-123 0 -210 -95t-87 -224zM311 1237v209h186v-209h-186zM643 1237v209h186v-209h-186z" />
<glyph unicode="&#xec;" horiz-adv-x="569" d="M195 0v1071h180v-1071h-180zM-26 1503h221l182 -289h-137z" />
<glyph unicode="&#xed;" horiz-adv-x="569" d="M195 0v1071h180v-1071h-180zM195 1214l182 289h221l-266 -289h-137z" />
<glyph unicode="&#xee;" horiz-adv-x="569" d="M195 0v1071h180v-1071h-180zM-12 1214l203 289h190l203 -289h-164l-135 191l-135 -191h-162z" />
<glyph unicode="&#xef;" horiz-adv-x="569" d="M195 0v1071h180v-1071h-180zM27 1237v209h186v-209h-186zM359 1237v209h186v-209h-186z" />
<glyph unicode="&#xf0;" d="M72 520q0 221 118 377q133 174 351 174q74 0 125 -16q84 -27 147 -97l4 5q-35 86 -98 163q-53 66 -129 127l-254 -127l-86 86l242 117q-84 66 -183 107l152 73q106 -41 186 -104l217 104l97 -82l-220 -104q156 -143 242 -329.5t86 -383.5q0 -334 -162 -504 q-131 -137 -321 -137q-250 0 -391 174q-123 152 -123 377zM258 520q0 -131 57 -239q82 -156 254 -156t254 156q57 109 58 239q0 131 -58 240q-82 156 -254 155q-172 0 -254 -155q-57 -109 -57 -240z" />
<glyph unicode="&#xf1;" d="M133 0v1071h170v-151q53 72 111 112q96 70 217 70q154 0 250 -72q125 -94 125 -301v-729h-181v659q0 147 -49 214t-180 67q-104 0 -178 -68q-104 -94 -105 -288v-584h-180zM201 1241q14 102 59 156q53 63 154 63q39 0 64.5 -6t74.5 -24l45 -19q63 -27 96 -27q53 0 78 33 q16 20 25 62h102q-12 -96 -65.5 -160t-139.5 -64q-25 0 -48 5.5t-72 21.5l-54 18q-49 16 -76.5 23.5t-48.5 7.5q-68 0 -96 -90h-98z" />
<glyph unicode="&#xf2;" d="M72 537q0 231 118 387q135 178 379 178q242 0 377 -178q121 -158 121 -387q0 -231 -119 -387q-135 -178 -379 -179q-242 0 -376 179q-121 158 -121 387zM258 537q0 -152 57 -258q82 -152 254 -152q170 0 252 149q59 109 60 261q0 152 -58 258q-82 152 -254 151 q-170 0 -252 -149q-59 -108 -59 -260zM258 1503h221l182 -289h-137z" />
<glyph unicode="&#xf3;" d="M72 537q0 231 118 387q135 178 379 178q242 0 377 -178q121 -158 121 -387q0 -231 -119 -387q-135 -178 -379 -179q-242 0 -376 179q-121 158 -121 387zM258 537q0 -152 57 -258q82 -152 254 -152q170 0 252 149q59 109 60 261q0 152 -58 258q-82 152 -254 151 q-170 0 -252 -149q-59 -108 -59 -260zM479 1214l182 289h221l-266 -289h-137z" />
<glyph unicode="&#xf4;" d="M72 537q0 231 118 387q135 178 379 178q242 0 377 -178q121 -158 121 -387q0 -231 -119 -387q-135 -178 -379 -179q-242 0 -376 179q-121 158 -121 387zM258 537q0 -152 57 -258q82 -152 254 -152q170 0 252 149q59 109 60 261q0 152 -58 258q-82 152 -254 151 q-170 0 -252 -149q-59 -108 -59 -260zM272 1214l203 289h190l203 -289h-164l-135 191l-135 -191h-162z" />
<glyph unicode="&#xf5;" d="M72 537q0 231 118 387q135 178 379 178q242 0 377 -178q121 -158 121 -387q0 -231 -119 -387q-135 -178 -379 -179q-242 0 -376 179q-121 158 -121 387zM258 537q0 -152 57 -258q82 -152 254 -152q170 0 252 149q59 109 60 261q0 152 -58 258q-82 152 -254 151 q-170 0 -252 -149q-59 -108 -59 -260zM221 1241q14 102 59 156q53 63 154 63q39 0 64.5 -6t74.5 -24l45 -19q63 -27 96 -27q53 0 78 33q16 20 25 62h102q-12 -96 -65.5 -160t-139.5 -64q-25 0 -48 5.5t-72 21.5l-54 18q-49 16 -76.5 23.5t-48.5 7.5q-68 0 -96 -90h-98z" />
<glyph unicode="&#xf6;" d="M72 537q0 231 118 387q135 178 379 178q242 0 377 -178q121 -158 121 -387q0 -231 -119 -387q-135 -178 -379 -179q-242 0 -376 179q-121 158 -121 387zM258 537q0 -152 57 -258q82 -152 254 -152q170 0 252 149q59 109 60 261q0 152 -58 258q-82 152 -254 151 q-170 0 -252 -149q-59 -108 -59 -260zM311 1237v209h186v-209h-186zM643 1237v209h186v-209h-186z" />
<glyph unicode="&#xf7;" horiz-adv-x="1830" d="M82 569h1515l-268 -268l53 -53l363 362l-363 363l-53 -53l268 -269h-1515v-82z" />
<glyph unicode="&#xf8;" horiz-adv-x="1251" d="M57 8l131 148q-57 78 -86.5 176t-29.5 205q0 231 118 387q135 178 379 178q106 0 189.5 -34t146.5 -99l131 147l64 -53l-142 -160q53 -74 81 -169t28 -197q0 -231 -119 -387q-135 -178 -379 -179q-102 0 -183 32t-142 91l-123 -139zM258 537q0 -61 11.5 -123t39.5 -121 l484 547q-37 49 -93.5 77.5t-130.5 28.5q-170 0 -252 -149q-59 -108 -59 -260zM356 221q35 -43 88.5 -68.5t124.5 -25.5q170 0 252 149q59 109 60 261q0 61 -9.5 115.5t-35.5 111.5z" />
<glyph unicode="&#xf9;" d="M139 301v770h180v-711q0 -125 60 -184q51 -51 147 -51q154 0 232 119q63 98 63 237v590h180v-1071h-170v156l-4 4q-59 -96 -137 -143.5t-203 -47.5q-141 0 -233 70q-115 86 -115 262zM258 1503h221l182 -289h-137z" />
<glyph unicode="&#xfa;" d="M139 301v770h180v-711q0 -125 60 -184q51 -51 147 -51q154 0 232 119q63 98 63 237v590h180v-1071h-170v156l-4 4q-59 -96 -137 -143.5t-203 -47.5q-141 0 -233 70q-115 86 -115 262zM479 1214l182 289h221l-266 -289h-137z" />
<glyph unicode="&#xfb;" d="M139 301v770h180v-711q0 -125 60 -184q51 -51 147 -51q154 0 232 119q63 98 63 237v590h180v-1071h-170v156l-4 4q-59 -96 -137 -143.5t-203 -47.5q-141 0 -233 70q-115 86 -115 262zM272 1214l203 289h190l203 -289h-164l-135 191l-135 -191h-162z" />
<glyph unicode="&#xfc;" d="M139 301v770h180v-711q0 -125 60 -184q51 -51 147 -51q154 0 232 119q63 98 63 237v590h180v-1071h-170v156l-4 4q-59 -96 -137 -143.5t-203 -47.5q-141 0 -233 70q-115 86 -115 262zM311 1237v209h186v-209h-186zM643 1237v209h186v-209h-186z" />
<glyph unicode="&#xfd;" horiz-adv-x="1024" d="M23 1071h204l285 -872l291 872h198q-94 -262 -187 -522t-198 -529q-129 -328 -188 -393t-231 -65q-20 0 -41 6l-35 10v164q23 -8 47.5 -13t60.5 -5q68 0 99 40q25 33 92 207zM422 1214l182 289h221l-266 -289h-137z" />
<glyph unicode="&#xfe;" d="M119 -424v1894h180v-546q55 78 98 110q88 68 215 68q207 0 330 -154q117 -147 117 -381q0 -236 -98 -395q-125 -203 -373 -203q-100 0 -173 40t-112 104l-4 -537h-180zM291 485q0 -190 102 -286q80 -74 191 -74q141 0 214.5 114.5t73.5 299.5q0 162 -41 252 q-70 150 -251 149q-172 0 -242 -162q-47 -109 -47 -293z" />
<glyph unicode="&#xff;" horiz-adv-x="1024" d="M23 1071h204l285 -872l291 872h198q-94 -262 -187 -522t-198 -529q-129 -328 -188 -393t-231 -65q-20 0 -41 6l-35 10v164q23 -8 47.5 -13t60.5 -5q68 0 99 40q25 33 92 207zM254 1237v209h186v-209h-186zM586 1237v209h186v-209h-186z" />
<glyph unicode="&#x152;" horiz-adv-x="2048" d="M74 727q0 289 121 498q166 285 507 284q158 0 263 -73q59 -41 102 -115l4 149h901v-176h-715v-450h682v-176h-682v-492h719v-176h-907v154q-78 -96 -131 -129q-100 -63 -264 -64q-283 0 -441.5 213t-158.5 553zM279 694q0 -178 53 -310t141 -192.5t258 -60.5 q121 0 213 76q115 94 115 264v537q0 152 -98.5 241.5t-255.5 89.5q-256 0 -361 -247q-65 -158 -65 -398z" />
<glyph unicode="&#x153;" horiz-adv-x="1933" d="M72 537q0 231 118 387q135 178 379 178q270 0 402 -217q76 115 174 166t241 51q227 0 344 -167t117 -458h-784q0 -170 79 -261t234 -91q117 0 203 76q74 66 74 135h180q-8 -59 -45 -131q-53 -100 -146 -162q-51 -35 -98 -49q-78 -25 -192 -25q-121 0 -222.5 49.5 t-175.5 157.5q-49 -96 -146 -150.5t-239 -54.5q-242 0 -376 179q-121 158 -121 387zM258 537q0 -152 57 -258q82 -152 254 -152q170 0 252 149q59 109 60 261q0 152 -58 258q-82 152 -254 151q-170 0 -252 -149q-59 -108 -59 -260zM1063 621h598q0 139 -66 221 q-78 98 -233 98q-123 0 -211 -96t-88 -223z" />
<glyph unicode="&#x178;" horiz-adv-x="569" d="M186 0v1470h199v-1470h-199zM-25 1683v117h642v-117h-642z" />
<glyph unicode="&#x2c6;" horiz-adv-x="1705" d="M133 0v1071h170v-151q74 98 151.5 140t176.5 42q125 0 203 -66q43 -37 81 -108q84 92 136 125q80 49 192 49q123 0 209 -66q123 -94 123 -295v-741h-180v692q0 119 -41 178q-49 70 -158 70q-111 0 -181.5 -86t-70.5 -201v-653h-180v741q0 84 -33 133q-43 66 -135 66 q-104 0 -178 -68q-104 -94 -105 -288v-584h-180zM762 1237v209h186v-209h-186z" />
<glyph unicode="&#x2dc;" horiz-adv-x="569" d="M29 922v149h145v299h180v-299h172v-149h-172v-697q0 -55 39 -73q23 -10 70 -11h63v-141l-135 -14q-123 0 -174 65q-43 55 -43 164v707h-145zM191 -375v209h186v-209h-186z" />
<glyph unicode="&#x2000;" horiz-adv-x="952" />
<glyph unicode="&#x2001;" horiz-adv-x="1906" />
<glyph unicode="&#x2002;" horiz-adv-x="952" />
<glyph unicode="&#x2003;" horiz-adv-x="1906" />
<glyph unicode="&#x2004;" horiz-adv-x="634" />
<glyph unicode="&#x2005;" horiz-adv-x="475" />
<glyph unicode="&#x2006;" horiz-adv-x="317" />
<glyph unicode="&#x2007;" horiz-adv-x="317" />
<glyph unicode="&#x2008;" horiz-adv-x="237" />
<glyph unicode="&#x2009;" horiz-adv-x="380" />
<glyph unicode="&#x200a;" horiz-adv-x="104" />
<glyph unicode="&#x2010;" horiz-adv-x="681" d="M90 475v184h502v-184h-502z" />
<glyph unicode="&#x2011;" horiz-adv-x="681" d="M90 475v184h502v-184h-502z" />
<glyph unicode="&#x2012;" horiz-adv-x="681" d="M90 475v184h502v-184h-502z" />
<glyph unicode="&#x2013;" d="M0 492v149h1139v-149h-1139z" />
<glyph unicode="&#x2014;" horiz-adv-x="2048" d="M0 492v149h2048v-149h-2048z" />
<glyph unicode="&#x2018;" horiz-adv-x="454" d="M133 963v200q0 131 43 205q51 88 170 117v-96q-70 -10 -94 -84q-14 -43 -14 -125h108v-217h-213z" />
<glyph unicode="&#x2019;" horiz-adv-x="454" d="M109 948v96q70 10 94 84q14 43 14 125h-108v217h213v-200q0 -131 -43 -205q-51 -88 -170 -117z" />
<glyph unicode="&#x201a;" horiz-adv-x="454" d="M109 0v217h213v-201q0 -131 -43 -204q-51 -88 -170 -117v96q70 10 94 84q14 43 14 125h-108z" />
<glyph unicode="&#x201c;" horiz-adv-x="681" d="M78 963v200q0 131 43 205q51 88 170 117v-96q-70 -10 -94 -84q-14 -43 -15 -125h109v-217h-213zM416 963v200q0 131 43 205q51 88 170 117v-96q-70 -10 -94 -84q-14 -43 -15 -125h109v-217h-213z" />
<glyph unicode="&#x201d;" horiz-adv-x="681" d="M53 948v96q70 10 94 84q14 43 15 125h-109v217h213v-200q0 -131 -43 -205q-51 -88 -170 -117zM391 948v96q70 10 94 84q14 43 15 125h-109v217h213v-200q0 -131 -43 -205q-51 -88 -170 -117z" />
<glyph unicode="&#x201e;" horiz-adv-x="681" d="M53 0v217h213v-201q0 -131 -43 -204q-51 -88 -170 -117v96q70 10 94 84q14 43 15 125h-109zM391 0v217h213v-201q0 -131 -43 -204q-51 -88 -170 -117v96q70 10 94 84q14 43 15 125h-109z" />
<glyph unicode="&#x2022;" horiz-adv-x="716" d="M37 735q0 135 92 229.5t229 94.5q135 0 229.5 -94.5t94.5 -229.5q0 -133 -94 -227t-230 -94q-133 0 -227 92t-94 229z" />
<glyph unicode="&#x2026;" horiz-adv-x="569" d="M195 0v1071h180v-1071h-180zM26 1284v117h642v-117h-642z" />
<glyph unicode="&#x202f;" horiz-adv-x="380" />
<glyph unicode="&#x2039;" horiz-adv-x="681" d="M180 473v189l322 251v-180l-215 -166l215 -166v-180z" />
<glyph unicode="&#x203a;" horiz-adv-x="681" d="M180 221v180l215 166l-215 166v180l322 -251v-189z" />
<glyph unicode="&#x205f;" horiz-adv-x="475" />
<glyph unicode="&#x20ac;" d="M74 279q0 111 49 186q82 125 276 149l297 37q43 4 64 25q31 29 31 102q0 174 -252 174q-135 0 -195 -71q-37 -45 -51 -136h-166q0 186 115.5 271.5t326.5 85.5q131 0 230 -45q168 -76 168 -254v-617q0 -63 59 -63l59 8v-131q-31 -8 -53 -14t-45 -6q-109 0 -156 51 q-35 39 -34 112q-68 -74 -142 -114q-106 -59 -245 -60q-150 0 -243 85.5t-93 224.5zM260 305q0 -186 195 -186q131 0 231 72.5t100 179.5v176q-23 -18 -82 -32.5t-215 -35.5q-96 -14 -147 -41q-82 -43 -82 -133zM233 1284v117h642v-117h-642z" />
<glyph unicode="&#x2122;" d="M139 301v770h180v-711q0 -125 60 -184q51 -51 147 -51q154 0 232 119q63 98 63 237v590h180v-1071h-170v156l-4 4q-59 -96 -137 -143.5t-203 -47.5q-141 0 -233 70q-115 86 -115 262zM251 1284v117h642v-117h-642z" />
<glyph unicode="&#x2219;" horiz-adv-x="1935" d="M41 1026q109 0 242 -55q43 -18 112 -56l8 177l7 198q98 -25 198 -59q125 -45 191 -82q35 55 80 113q33 41 84 100q51 -57 85.5 -102.5t77.5 -110.5q59 35 181.5 78t208.5 63l6 -198l10 -177q68 37 110 56q133 55 242 55q-20 -45 -96 -319q-51 -184 -125 -232 q78 -27 129 -125q43 -88 88 -174q-109 0 -240 25q-43 8 -110 24l-8 -75q-4 -25 -10.5 -63t-6.5 -50q-94 12 -205.5 32.5t-179.5 41.5l-80 -62v-231q0 -27 -20.5 -43.5t-56.5 -16.5q-35 0 -55.5 16.5t-20.5 43.5v231l-80 62q-49 -14 -184.5 -40t-202.5 -34q0 12 -7 53t-7 60 l-9 75q-68 -16 -110 -24q-133 -25 -242 -25q59 119 88 174q51 98 129 125q-74 47 -125 230q-78 278 -96 321zM100 983q27 -57 76 -242q68 -254 172 -254h150q-49 33 -73 85.5t-29 102.5t-5 144v49q-90 47 -112 58q-70 30 -179 57zM115 213q106 14 163.5 23.5t112.5 23.5 q-2 12 -2 27v20q0 59 33 99q25 31 76 45h-150q-94 0 -141 -80t-92 -158zM438 295q0 -37 11 -119l12 -98q76 10 155.5 26.5t155.5 36.5q-70 55 -110.5 110.5t-40.5 100.5q0 72 104 101l-70 -2q-125 0 -171 -39t-46 -117zM442 803q0 -160 39 -230q47 -86 174 -86h90 q-63 29 -95 83.5t-32 121.5q0 86 46 203q39 100 112 219q-61 35 -149 67.5t-170 53.5q0 -100 -7.5 -252.5t-7.5 -179.5zM670 692q0 -96 69.5 -150.5t223.5 -54.5t223 54.5t69 150.5q0 92 -55 217q-70 160 -237 396q-125 -176 -197 -314q-96 -184 -96 -299zM674 352 q0 -55 82 -139q72 -74 207 -166q135 94 206 166q82 84 82 139q0 47 -69.5 73t-218.5 26q-150 0 -219.5 -26t-69.5 -73zM932 18v-200q0 -6 10 -14.5t21 -8.5q31 0 30 23v200l-30 -20zM1149 1114q72 -117 115 -225.5t43 -196.5q0 -70 -30 -122t-95 -83h88q127 0 174 84 q39 70 39 230q0 63 -4 147q-10 211 -11 287q-92 -23 -171.5 -52.5t-147.5 -68.5zM1153 141q82 -23 155.5 -38t155.5 -25q4 53 14.5 122.5t10.5 96.5q0 80 -41 113q-49 41 -178 41l-70 2q106 -29 107 -101q0 -45 -40 -98.5t-114 -112.5zM1430 451q51 -16 73 -45 q33 -35 33 -99v-28q-2 -12 -2 -19q59 -14 113.5 -23.5t162.5 -23.5q-59 109 -88 156q-49 82 -145 82h-147zM1430 487h147q96 0 147.5 167t100.5 329q-102 -25 -176 -57q-20 -8 -115 -58v-92q0 -74 -5 -112.5t-27.5 -91t-71.5 -85.5z" />
<glyph unicode="&#xe000;" horiz-adv-x="1070" d="M0 1070h1070v-1070h-1070v1070z" />
<glyph unicode="&#xf101;" horiz-adv-x="681" d="M43 1214l203 289h190l203 -289h-164l-135 191l-135 -191h-162z" />
<glyph unicode="&#xf102;" horiz-adv-x="681" d="M-8 1241q14 102 59 156q53 63 154 63q39 0 64.5 -6t74.5 -24l45 -19q63 -27 96 -27q53 0 78 33q16 20 25 62h102q-12 -96 -65.5 -160t-139.5 -64q-25 0 -48 5.5t-72 21.5l-54 18q-49 16 -76.5 23.5t-48.5 7.5q-68 0 -96 -90h-98z" />
<glyph unicode="&#xf103;" horiz-adv-x="569" d="M195 0v1071h180v-1071h-180z" />
<glyph unicode="&#xf104;" horiz-adv-x="681" d="M248 1237v209h186v-209h-186z" />
<glyph unicode="&#xfb01;" horiz-adv-x="1024" d="M706 0v1071h180v-1071h-180zM706 1266v204h180v-204h-180zM29 922v149h147v184q0 236 279 236l82 -4v-162l-74 4q-57 0 -82 -28.5t-25 -96.5v-133h181v-149h-181v-922h-180v922h-147z" />
<glyph unicode="&#xfb02;" horiz-adv-x="1024" d="M706 0v1470h180v-1470h-180zM29 922v149h147v184q0 236 279 236l82 -4v-162l-74 4q-57 0 -82 -28.5t-25 -96.5v-133h181v-149h-181v-922h-180v922h-147z" />
<glyph unicode="&#xfb03;" horiz-adv-x="1593" d="M1276 0v1071h180v-1071h-180zM1276 1266v204h180v-204h-180zM598 922v149h147v184q0 236 279 236l82 -4v-162l-74 4q-57 0 -82 -28.5t-25 -96.5v-133h181v-149h-181v-922h-180v922h-147zM29 922v149h147v184q0 236 279 236l82 -4v-162l-74 4q-57 0 -82 -28.5t-25 -96.5 v-133h181v-149h-181v-922h-180v922h-147z" />
<glyph unicode="&#xfb04;" horiz-adv-x="1593" d="M1276 0v1470h180v-1470h-180zM598 922v149h147v184q0 236 279 236l82 -4v-162l-74 4q-57 0 -82 -28.5t-25 -96.5v-133h181v-149h-181v-922h-180v922h-147zM29 922v149h147v184q0 236 279 236l82 -4v-162l-74 4q-57 0 -82 -28.5t-25 -96.5v-133h181v-149h-181v-922h-180 v922h-147z" />
</font>
</defs>
</svg>
