<?xml version="1.0" standalone="no"?>
<!DOCTYPE svg PUBLIC "-//W3C//DTD SVG 1.1//EN" "http://www.w3.org/Graphics/SVG/1.1/DTD/svg11.dtd" >
<svg xmlns="http://www.w3.org/2000/svg">
<metadata>
This is a custom SVG webfont generated by Font Squirrel.
Copyright   : Copyright c 1999 Ramakanta Dasa
</metadata>
<defs>
<font id="SanskritHelveticaBold" horiz-adv-x="1138" >
<font-face units-per-em="2048" ascent="1638" descent="-410" />
<missing-glyph horiz-adv-x="569" />
<glyph unicode=" "  horiz-adv-x="569" />
<glyph unicode="&#x09;" horiz-adv-x="569" />
<glyph unicode="&#xa0;" horiz-adv-x="569" />
<glyph unicode="!" horiz-adv-x="681" d="M184 1096v374h316v-374l-82 -688h-152zM193 0v289h299v-289h-299z" />
<glyph unicode="&#x22;" horiz-adv-x="970" d="M201 915v555h200v-555h-200zM569 915v555h201v-555h-201z" />
<glyph unicode="#" d="M37 408l24 184h199l35 246h-199l25 184h198l58 408h192l-57 -408h199l57 408h193l-58 -408h199l-25 -184h-198l-35 -246h198l-24 -184h-199l-57 -408h-193l58 408h-199l-57 -408h-193l58 408h-199zM453 592h198l35 246h-199z" />
<glyph unicode="$" d="M61 440h269q10 -123 41 -172q41 -66 151 -86v430q-201 53 -291 121q-139 104 -139 295q0 180 105 297q117 129 325 129v133h94v-133q178 -18 273 -82q160 -106 160 -346h-265q0 127 -53 176q-39 35 -115 35v-383q133 -43 218.5 -84t123.5 -78q74 -70 99 -162 q14 -53 14 -124q0 -168 -100 -291q-123 -150 -355 -150v-201h-94v201q-242 0 -351.5 119.5t-109.5 355.5zM350 1077q0 -90 56 -139q43 -39 116 -55v354q-84 0 -128 -49.5t-44 -110.5zM616 182q66 0 115 41q66 55 66 160q0 80 -60 133q-45 41 -121 62v-396z" />
<glyph unicode="%" horiz-adv-x="1820" d="M57 1081q0 156 108.5 264.5t264.5 108.5q154 0 263.5 -109.5t109.5 -263.5t-109.5 -263t-263.5 -109t-263.5 107t-109.5 265zM268 1081q0 -68 47 -114.5t115 -46.5q66 0 114 46t48 115q0 68 -47 115t-115 47q-66 0 -114 -46t-48 -116zM422 -39l815 1493h152l-816 -1493 h-151zM1018 348q0 156 108.5 264.5t264.5 108.5q154 0 263 -109.5t109 -263.5t-109.5 -263.5t-262.5 -109.5q-154 0 -263.5 107.5t-109.5 265.5zM1229 348q0 -68 47 -115t115 -47q66 0 113.5 46.5t47.5 115.5q0 68 -47 115t-114 47q-66 0 -114 -46t-48 -116z" />
<glyph unicode="&#x26;" horiz-adv-x="1478" d="M111 379q0 125 49 211q66 115 233 217l31 18q-57 66 -90 131q-43 88 -43 177q0 150 108.5 243.5t282.5 93.5q141 0 242 -79q119 -94 118 -261q0 -135 -98 -239q-53 -55 -145 -111l209 -258q29 45 48 102.5t27 139.5h254q-14 -147 -51 -242.5t-117 -199.5l267 -322h-346 l-101 125q-78 -78 -158 -115q-109 -49 -262 -49q-203 0 -330.5 124t-127.5 294zM397 397q0 -66 43 -118q59 -76 174 -76q68 0 131 33q45 23 97 69l-271 338q-98 -72 -131 -113q-43 -55 -43 -133zM553 1135q0 -68 106 -185q63 41 99.5 84t36.5 99q0 57 -34 88.5t-89 31.5 q-53 0 -86 -29.5t-33 -88.5z" />
<glyph unicode="'" horiz-adv-x="487" d="M143 915v555h201v-555h-201z" />
<glyph unicode="(" horiz-adv-x="681" d="M72 535q0 276 108 538q86 209 252 430h211q-133 -227 -197 -426q-80 -252 -79 -542q0 -291 82 -541q61 -188 194 -420h-211q-162 217 -248 422q-112 267 -112 539z" />
<glyph unicode=")" horiz-adv-x="681" d="M39 -426q133 227 197 426q80 252 79 543q0 291 -82 540q-61 188 -194 420h211q162 -217 248 -422q113 -266 112 -538q0 -276 -108 -539q-86 -209 -252 -430h-211z" />
<glyph unicode="*" horiz-adv-x="796" d="M55 1147l47 149l209 -69v243h174v-243l207 69l49 -149l-215 -66l142 -198l-129 -90l-140 186l-141 -186l-129 90l139 198z" />
<glyph unicode="+" horiz-adv-x="1196" d="M82 403v230h401v403h230v-403h401v-230h-401v-403h-230v403h-401z" />
<glyph unicode="," horiz-adv-x="569" d="M131 0v299h307v-258q0 -176 -86 -270q-74 -80 -219 -115l-2 108q82 29 115 62q57 57 57 174h-172z" />
<glyph unicode="-" horiz-adv-x="681" d="M55 440v267h572v-267h-572z" />
<glyph unicode="." horiz-adv-x="569" d="M131 0v299h307v-299h-307z" />
<glyph unicode="/" horiz-adv-x="569" d="M-68 -39l465 1548h240l-465 -1548h-240z" />
<glyph unicode="0" d="M66 709q0 381 122.5 563t380.5 182q256 0 380 -182t124 -563q0 -383 -123 -565.5t-381 -182.5q-256 0 -379.5 183.5t-123.5 564.5zM360 709q0 -287 44.5 -403t164.5 -116q121 0 165 115t44 404q0 287 -44 401.5t-165 114.5t-165 -113.5t-44 -402.5z" />
<glyph unicode="1" d="M141 1001v201h41q188 0 281 84q76 70 76 168h235v-1454h-287v1001h-346z" />
<glyph unicode="2" d="M53 0q0 164 49 266q74 156 289 312q178 129 230 174q137 121 137 254q0 82 -47 139q-55 68 -154 67q-131 0 -180 -96q-29 -57 -29 -176h-278q0 307 188 434q119 80 287 80q217 0 358 -122t141 -337q0 -166 -98 -293q-66 -86 -205 -180q-90 -63 -178 -125 q-121 -90 -147 -143h631v-254h-994z" />
<glyph unicode="3" d="M55 446h281q-2 -96 31 -157q53 -98 180 -99q92 0 149 58q66 66 66 182q0 131 -113 178q-70 29 -213 29v205h45q102 0 154 26q90 45 90 170q0 66 -31 113q-47 74 -151 74q-127 0 -172 -99q-25 -53 -25 -139h-266q0 213 117 336q125 131 364 131q176 0 297 -86 q154 -109 154 -319q0 -102 -56 -181q-45 -63 -118 -96q106 -39 162.5 -127t56.5 -215q0 -207 -137.5 -338t-358.5 -131q-182 0 -303 72q-203 118 -203 413z" />
<glyph unicode="4" d="M55 322v247l535 885h325v-909h162v-223h-162v-322h-286v322h-574zM266 545h363q0 268 2 397t4 227z" />
<glyph unicode="5" d="M55 389h287q10 -94 60.5 -146.5t142.5 -52.5q100 0 158.5 76t58.5 197q0 106 -49 178q-57 82 -164 82q-57 0 -90 -12q-66 -25 -103 -93l-256 13l101 799h798v-242h-591l-52 -316q53 37 97 54q70 27 163 26q170 0 293 -108q147 -129 148 -361q0 -199 -103 -336 q-139 -186 -426 -186q-190 0 -321 102q-152 119 -152 326z" />
<glyph unicode="6" d="M63 692q0 195 27 320q41 195 150 305q133 137 364 137q70 0 144 -18q104 -27 153 -76q63 -63 89 -112.5t46 -162.5h-284q-6 63 -48 101.5t-120 38.5q-127 0 -189 -129q-51 -109 -51 -273l4 -4q49 68 118 94.5t155 26.5q211 0 333 -141q111 -129 111 -307 q0 -240 -131 -385.5t-344 -145.5q-301 0 -428 229q-99 176 -99 502zM350 461q0 -121 61.5 -196t166.5 -75q86 0 139 64q61 74 61 213q0 127 -69 190q-57 53 -140 54q-92 0 -149 -56q-70 -67 -70 -194z" />
<glyph unicode="7" d="M51 1176l6 254h1024v-222q-121 -131 -198 -239q-139 -195 -224 -410q-109 -279 -108 -559h-295q0 264 106 535q82 209 222 407q84 119 190 234h-723z" />
<glyph unicode="8" d="M66 403q0 104 26 172q51 131 195 197q-176 88 -176 285q0 180 129 288.5t323 108.5q219 0 344 -113q117 -104 117 -266q0 -98 -40 -173t-128 -120q111 -55 160 -129q57 -86 57 -221q0 -174 -106 -303q-137 -168 -398 -168q-256 0 -391 145q-112 123 -112 297zM360 422 q0 -106 56.5 -169t154.5 -63q104 0 160 76q47 63 47 154q0 92 -45 151q-57 76 -168 76q-86 0 -141 -53q-64 -61 -64 -172zM385 1044q0 -70 49 -125t137 -55q82 0 130.5 50.5t48.5 129.5q0 80 -48.5 130.5t-119.5 50.5q-96 0 -146.5 -48.5t-50.5 -132.5z" />
<glyph unicode="9" d="M61 932q0 258 142 395q131 127 354 127q256 0 384 -181t128 -566q0 -389 -166 -584q-139 -162 -362 -162q-186 0 -309 100.5t-142 274.5h285q12 -74 56 -110t112 -36q100 0 164 89q76 106 75 317l-4 4q-45 -68 -125 -98q-66 -25 -151 -25q-201 0 -321 132.5t-120 322.5z M348 973q0 -152 66 -215q53 -51 149 -51q84 0 144 57q68 66 67 186q0 129 -54 199t-165 70q-80 0 -131 -43q-76 -64 -76 -203z" />
<glyph unicode=":" horiz-adv-x="681" d="M188 0v299h308v-299h-308zM188 750v299h308v-299h-308z" />
<glyph unicode=";" horiz-adv-x="681" d="M188 0v299h308v-258q0 -176 -86 -270q-74 -80 -220 -115l-2 108q82 29 115 62q57 57 57 174h-172zM188 750v299h308v-299h-308z" />
<glyph unicode="&#x3c;" horiz-adv-x="1196" d="M78 426v184l1040 443v-222l-743 -313l743 -313v-221z" />
<glyph unicode="=" horiz-adv-x="1196" d="M82 178v230h1032v-230h-1032zM82 629v229h1032v-229h-1032z" />
<glyph unicode="&#x3e;" horiz-adv-x="1196" d="M78 -16v221l743 313l-743 313v222l1040 -443v-184z" />
<glyph unicode="?" horiz-adv-x="1251" d="M123 1010q0 244 162 372q133 106 329 107q246 0 390 -121q135 -113 135 -315q0 -119 -64 -209q-53 -74 -184 -168q-72 -51 -94 -92q-31 -55 -31 -158h-270q0 160 32 231q41 88 177 185q127 88 126 202q0 111 -65 162q-51 41 -133 41q-94 0 -150.5 -52t-70.5 -183zM487 0 v289h299v-289h-299z" />
<glyph unicode="@" horiz-adv-x="1996" d="M242 735q0 326 232.5 550t557.5 224q291 0 500 -172q221 -182 221 -460q0 -291 -207 -463q-160 -133 -315 -133q-47 0 -82 28.5t-35 79.5q-47 -47 -104.5 -77.5t-114.5 -30.5q-133 0 -231.5 105.5t-98.5 250.5q0 201 119 348q127 158 320 158q82 0 142 -31t105 -102 l27 108h180l-119 -522l-6 -31q-8 -39 -8 -55q0 -43 31 -43q86 0 158.5 101.5t72.5 258.5q0 246 -155.5 382.5t-403.5 136.5q-260 0 -422 -174.5t-162 -440.5q0 -272 171 -439t442 -167q125 0 235.5 44t194.5 122h182q-106 -158 -269 -244t-356 -86q-336 0 -569 221t-233 553 zM786 668q0 -82 42 -132.5t118 -50.5q104 0 174 88.5t70 196.5q0 76 -45 125t-119 49q-100 0 -170 -88t-70 -188z" />
<glyph unicode="A" horiz-adv-x="1478" d="M41 0l524 1470h355l518 -1470h-334l-94 303h-543l-102 -303h-324zM549 557h375l-183 582z" />
<glyph unicode="B" horiz-adv-x="1478" d="M156 0v1470h714q242 0 361 -131q92 -102 92 -245q0 -137 -66 -217q-37 -45 -114 -84q125 -47 180 -148q47 -86 47 -209q0 -88 -32.5 -165.5t-94.5 -137.5q-72 -70 -149 -96q-109 -37 -316 -37h-622zM451 254h376q115 0 175.5 52t60.5 163q0 90 -63.5 134t-157.5 44h-391 v-393zM451 895h360q98 0 154 37q63 43 63 127q0 86 -57.5 122t-167.5 36h-352v-322z" />
<glyph unicode="C" horiz-adv-x="1478" d="M90 733q0 373 195 582q182 195 481 194q301 0 481 -178q154 -152 154 -342h-307q-31 109 -76 160q-84 94 -250 94q-141 0 -238 -100q-127 -133 -127 -414q0 -217 84 -350q96 -152 281 -152q129 0 213 71t113 206h307q-49 -252 -203 -391q-168 -152 -436 -152 q-305 0 -483 195q-189 204 -189 577z" />
<glyph unicode="D" horiz-adv-x="1478" d="M156 0v1470h649q332 0 485 -245q113 -180 113 -455q0 -297 -123 -502q-160 -268 -487 -268h-637zM457 254h299q172 0 260 156q74 131 74 338q0 287 -119 397q-78 72 -219 72h-295v-963z" />
<glyph unicode="E" horiz-adv-x="1366" d="M156 0v1470h1081v-260h-780v-309h717v-260h-717v-381h815v-260h-1116z" />
<glyph unicode="F" horiz-adv-x="1251" d="M156 0v1470h1046v-260h-739v-331h647v-261h-647v-618h-307z" />
<glyph unicode="G" horiz-adv-x="1593" d="M90 731q0 328 172 539q195 240 547 239q307 0 491 -172q154 -143 154 -323h-307q0 63 -78 141q-100 100 -244 100q-180 0 -293 -122q-129 -141 -129 -406q0 -276 136 -403q109 -102 292 -103q96 0 179 49q137 82 178 275h-342v248h614v-793h-205l-30 184 q-88 -102 -158 -145q-125 -78 -301 -78q-285 0 -471 191q-205 208 -205 579z" />
<glyph unicode="H" horiz-adv-x="1478" d="M145 0v1470h308v-557h573v557h307v-1470h-307v659h-573v-659h-308z" />
<glyph unicode="I" horiz-adv-x="569" d="M131 0v1470h307v-1470h-307z" />
<glyph unicode="J" d="M45 555h287q0 -193 28 -258q37 -86 152 -86q106 0 145 65q27 45 27 150v1044h307v-1044q0 -231 -115.5 -347t-340.5 -116q-326 0 -429 191q-61 112 -61 401z" />
<glyph unicode="K" horiz-adv-x="1478" d="M178 0v1470h307v-598l562 598h397l-600 -602l635 -868h-396l-454 645l-144 -147v-498h-307z" />
<glyph unicode="L" horiz-adv-x="1251" d="M156 0v1470h307v-1204h731v-266h-1038z" />
<glyph unicode="M" horiz-adv-x="1705" d="M141 0v1470h449l266 -1159l266 1159h445v-1470h-287v1229l-279 -1229h-301l-268 1229l-4 -1229h-287z" />
<glyph unicode="N" horiz-adv-x="1478" d="M141 0v1470h324l584 -1024l4 1024h286v-1470h-307l-600 1049l-4 -1049h-287z" />
<glyph unicode="O" horiz-adv-x="1593" d="M90 735q0 315 139 508q109 152 297 219q129 47 271 47q139 0 268 -47q188 -68 297 -219q141 -195 141 -508q0 -315 -139 -508q-109 -152 -297 -219q-129 -47 -270 -47q-139 0 -269 47q-188 68 -297 219q-141 195 -141 508zM397 735q0 -279 138 -411q104 -102 262 -103 q156 0 262 103q137 133 137 411q0 279 -137 412q-104 102 -262 102q-156 0 -262 -102q-138 -133 -138 -412z" />
<glyph unicode="P" horiz-adv-x="1366" d="M156 0v1470h671q213 0 335 -125.5t122 -345.5q0 -156 -86 -284q-123 -184 -383 -185h-352v-530h-307zM463 784h285q147 0 200 90q29 49 29 140q0 109 -63.5 156t-206.5 47h-244v-433z" />
<glyph unicode="Q" horiz-adv-x="1593" d="M90 735q0 315 139 508q109 152 297 219q129 47 271 47q139 0 268 -47q188 -68 297 -219q141 -195 141 -508q0 -170 -41 -301t-112 -223l159 -152l-161 -165l-174 165q-94 -55 -209 -79q-86 -18 -168 -19q-139 0 -269 47q-188 68 -297 219q-141 195 -141 508zM397 735 q0 -279 138 -411q104 -102 262 -103q43 0 85 9.5t81 29.5l-148 139l158 166l155 -145q33 59 50.5 136t17.5 179q0 279 -137 412q-104 102 -262 102q-156 0 -262 -102q-138 -133 -138 -412z" />
<glyph unicode="R" horiz-adv-x="1478" d="M156 0v1470h743q201 0 318 -96q145 -119 145 -319q0 -123 -60.5 -218.5t-166.5 -131.5q104 -47 139 -103q47 -78 47 -270q0 -174 9 -225.5t56 -67.5v-39h-339q-16 59 -24.5 120.5t-8.5 176.5q0 168 -33 215q-45 63 -207 63h-317v-575h-301zM457 823h360q123 0 180.5 46 t57.5 155q0 76 -39 125q-55 68 -176 68h-383v-394z" />
<glyph unicode="S" horiz-adv-x="1366" d="M80 453h295q0 -90 53 -150q80 -88 258 -88q131 0 209 37q98 47 98 154q0 80 -73 120q-49 27 -193 62l-158 37q-236 55 -321 114q-145 100 -146 318q0 170 103 286q145 166 463 166q301 0 454 -170q119 -131 119 -305h-295q-10 88 -51 135q-74 86 -250 86q-104 0 -172 -36 q-84 -47 -84 -140q0 -76 53 -114q31 -23 103 -39l358 -88q182 -45 268 -117q117 -96 117 -279q0 -223 -147 -346q-162 -135 -432 -135q-358 0 -516 176q-113 126 -113 316z" />
<glyph unicode="T" horiz-adv-x="1251" d="M29 1210v260h1196v-260h-445v-1210h-307v1210h-444z" />
<glyph unicode="U" horiz-adv-x="1478" d="M147 496v974h314v-954q0 -145 73.5 -220t188.5 -75q154 0 225.5 72t71.5 209v968h313v-956q0 -283 -162 -422q-154 -131 -442 -131q-129 0 -233 33q-143 45 -234 145q-115 130 -115 357z" />
<glyph unicode="V" horiz-adv-x="1366" d="M39 1470h330l315 -1114l324 1114h319l-500 -1470h-292z" />
<glyph unicode="W" horiz-adv-x="1933" d="M33 1470h327q102 -434 150 -649q57 -256 84 -426l209 1075h325q119 -561 162 -768q29 -141 58 -307q57 274 88 414q2 10 155 661h312l-414 -1470h-295q-102 483 -152 737q-39 201 -75 410q-18 -104 -47 -254q-39 -201 -64 -320q-61 -287 -121 -573h-286z" />
<glyph unicode="X" horiz-adv-x="1366" d="M29 0l475 752l-449 718h367l262 -475l268 475h355l-449 -706l479 -764h-374l-279 502l-297 -502h-358z" />
<glyph unicode="Y" horiz-adv-x="1366" d="M31 1470h362l305 -639l291 639h348l-491 -919v-551h-307v555z" />
<glyph unicode="Z" horiz-adv-x="1251" d="M51 0v260l760 950h-739v260h1124v-241l-770 -969h774v-260h-1149z" />
<glyph unicode="[" horiz-adv-x="681" d="M129 -401v1880h504v-197h-254v-1487h254v-196h-504z" />
<glyph unicode="\" horiz-adv-x="569" d="M-68 1509h240l465 -1548h-240z" />
<glyph unicode="]" horiz-adv-x="681" d="M49 -205h254v1487h-254v197h504v-1880h-504v196z" />
<glyph unicode="^" horiz-adv-x="1196" d="M127 662l369 768h204l369 -768h-225l-246 538l-248 -538h-223z" />
<glyph unicode="_" d="M0 -154h1139v-102h-1139v102z" />
<glyph unicode="`" horiz-adv-x="681" d="M-47 1536h315l193 -299h-207z" />
<glyph unicode="a" d="M59 289q0 154 86 240.5t232 107.5l258 39q47 6 67 20q33 23 33 66q0 80 -65 108q-41 18 -123 19q-96 0 -139 -51q-29 -33 -37 -101h-277q23 225 172 316q111 66 316 65q164 0 274 -55q160 -80 160 -260v-590q0 -90 16.5 -125t46.5 -45v-43h-309q-20 61 -27 129 q-70 -74 -127 -104q-94 -53 -225 -54q-137 0 -227 74q-105 86 -105 244zM346 307q0 -68 45 -102q37 -29 88 -29q102 0 179 59.5t77 155.5v139q-20 -16 -65 -31.5t-136.5 -29.5t-130.5 -41q-57 -39 -57 -121z" />
<glyph unicode="b" horiz-adv-x="1251" d="M125 0v1470h287v-522q51 72 108 111q88 59 211 59q190 0 316 -139q137 -154 137 -422q0 -248 -107 -405q-123 -180 -352 -181q-98 0 -176 37q-90 43 -139 129l-4 -137h-281zM399 520q0 -135 58 -217q68 -96 196 -96q123 0 187 117q49 90 49 213q0 143 -53 231 q-61 102 -191 102q-135 0 -196 -108q-50 -88 -50 -242z" />
<glyph unicode="c" d="M70 514q0 279 123 434q133 170 399 170q178 0 305 -80q176 -111 176 -338h-291q-16 92 -73 140q-47 37 -117 37q-121 0 -180 -107q-47 -84 -47 -209q0 -195 54 -274.5t167 -79.5q96 0 151 76q43 59 43 114h291q-12 -141 -102 -254q-135 -172 -396 -172q-276 0 -405 185 q-98 141 -98 358z" />
<glyph unicode="d" horiz-adv-x="1251" d="M70 557q0 270 135 422q125 139 317 139q123 0 209 -57q59 -41 107 -113l4 522h286v-1470h-280v137q-51 -86 -141 -129q-78 -37 -179 -37q-227 0 -350 181q-108 159 -108 405zM365 537q0 -125 47 -213q63 -117 188 -117q127 0 195 96q59 84 59 217q0 152 -49 240 q-61 111 -197 110q-127 0 -190 -102q-53 -86 -53 -231z" />
<glyph unicode="e" d="M47 567q0 182 82 324q133 227 440 227q205 0 336 -112q176 -152 176 -488v-51h-747q14 -143 75.5 -204.5t180.5 -61.5q63 0 115.5 30.5t68.5 87.5h295q-53 -182 -197 -272q-121 -76 -282 -76q-252 0 -387 129q-156 150 -156 467zM342 653h444q-10 121 -81 181 q-57 49 -140 49q-100 0 -155.5 -59.5t-67.5 -170.5z" />
<glyph unicode="f" horiz-adv-x="681" d="M20 885v205h158v88q0 162 83 236.5t237 74.5l147 -4v-232h-80q-68 0 -84 -23.5t-16 -96.5v-43h186v-205h-186v-885h-287v885h-158z" />
<glyph unicode="g" horiz-adv-x="1251" d="M82 557q0 270 135 422q125 139 318 139q135 0 223 -67q57 -45 96 -123l4 162h275v-1033q0 -215 -74 -321q-125 -180 -477 -180q-190 0 -322 75q-154 90 -154 252h312q12 -53 41 -76q47 -35 159 -34q227 0 228 250v131l-4 4q-41 -74 -99 -113q-76 -51 -192 -51 q-207 0 -332 137q-137 152 -137 426zM377 539q0 -123 49 -203q61 -100 178 -100q133 0 195 100q49 80 49 215q0 139 -62 225q-68 94 -184 94q-92 0 -151 -69q-74 -88 -74 -262z" />
<glyph unicode="h" horiz-adv-x="1251" d="M133 0v1470h287v-522q33 72 120 121t199 49q166 0 272.5 -95t106.5 -269v-754h-287v662q0 92 -24 137q-41 78 -162 78q-98 0 -161.5 -66t-63.5 -186v-625h-287z" />
<glyph unicode="i" horiz-adv-x="569" d="M141 0v1090h287v-1090h-287zM141 1219v266h287v-266h-287z" />
<glyph unicode="j" horiz-adv-x="569" d="M6 -209h51q33 0 52 12q33 23 32 88v1199h287v-1205q0 -199 -92 -268q-74 -55 -258 -55h-72v229zM141 1219v266h287v-266h-287z" />
<glyph unicode="k" d="M141 0v1470h287v-794l360 414h353l-385 -422l395 -668h-344l-260 467l-119 -123v-344h-287z" />
<glyph unicode="l" horiz-adv-x="569" d="M141 0v1470h287v-1470h-287z" />
<glyph unicode="m" horiz-adv-x="1820" d="M131 0v1090h275v-160q45 80 98 121q86 68 215 67q113 0 178.5 -41t124.5 -133q51 74 92 107q84 68 199 67q166 0 272.5 -95t106.5 -269v-754h-287v662q0 115 -42 165t-114 50q-102 0 -148 -59.5t-46 -164.5v-653h-287v655q0 104 -20 146q-37 76 -152 76q-94 0 -136 -57.5 t-42 -155.5v-664h-287z" />
<glyph unicode="n" horiz-adv-x="1251" d="M133 0v1090h275v-160q70 104 148.5 146t182.5 42q166 0 272.5 -95t106.5 -269v-754h-287v662q0 92 -24 137q-41 78 -162 78q-98 0 -161.5 -66t-63.5 -186v-625h-287z" />
<glyph unicode="o" horiz-adv-x="1251" d="M70 545q0 281 168 434q152 139 389 139q238 0 389 -139q168 -154 168 -434q0 -281 -168 -434q-152 -139 -389 -140q-238 0 -389 140q-168 153 -168 434zM365 545q0 -135 47 -217q66 -115 215 -115q147 0 213 113q49 86 49 219q0 135 -47 217q-66 115 -215 115 q-147 0 -213 -113q-49 -86 -49 -219z" />
<glyph unicode="p" horiz-adv-x="1251" d="M127 -424v1514h274v-158q57 86 113 125q88 61 217 61q190 0 316 -139q137 -154 137 -422q0 -248 -107 -405q-123 -180 -352 -181q-131 0 -215 62q-51 37 -92 106l-4 -563h-287zM401 520q0 -133 58 -217q66 -96 194 -96q123 0 187 117q49 90 49 213q0 143 -53 231 q-61 102 -191 102q-135 0 -194 -108q-50 -88 -50 -242z" />
<glyph unicode="q" horiz-adv-x="1251" d="M70 522q0 252 110 412q127 184 367 184q123 0 207 -67q51 -43 98 -123l4 162h274v-1514h-286v559q-94 -164 -314 -164q-233 0 -358 189q-102 153 -102 362zM365 524q0 -152 59 -231.5t186 -79.5q106 0 173 82t67 244q0 150 -62 235q-70 96 -184 96q-102 0 -162 -67 q-77 -89 -77 -279z" />
<glyph unicode="r" horiz-adv-x="796" d="M131 0v1090h275v-189q76 133 143 175t160 42l55 -4v-291q-18 2 -36.5 3t-45.5 1q-152 0 -215 -84q-49 -63 -49 -176v-567h-287z" />
<glyph unicode="s" d="M61 348h295q0 -76 54.5 -118t183.5 -42q96 0 145 41q37 31 37 72q0 68 -174 107q-258 55 -326 88q-176 82 -176 258q0 143 93 241q117 123 348 123q205 0 323 -63q166 -90 166 -297h-280q-12 70 -41 98q-45 45 -152 45q-104 0 -145 -35q-31 -27 -31 -71q0 -63 176 -103 q252 -55 328 -90q178 -84 178 -256q0 -209 -174 -305q-127 -70 -303 -70q-219 0 -355 78q-170 98 -170 299z" />
<glyph unicode="t" horiz-adv-x="681" d="M20 885v205h148v294h287v-294h178v-205h-178v-592q0 -53 18.5 -70.5t99.5 -17.5l60 4v-217l-135 -4h-37q-174 0 -240 63q-53 51 -53 172v662h-148z" />
<glyph unicode="u" horiz-adv-x="1251" d="M135 373v717h287v-676q0 -115 59 -164q45 -37 127 -37q88 0 146 49q76 66 75 199v629h287v-1090h-274v154q-109 -182 -336 -183q-170 0 -266 97q-105 104 -105 305z" />
<glyph unicode="v" d="M27 1090h319l225 -803l236 803h305l-393 -1090h-301z" />
<glyph unicode="w" horiz-adv-x="1593" d="M20 1090h306l170 -783l157 783h289l164 -783l174 783h295l-313 -1090h-295l-170 795l-174 -795h-295z" />
<glyph unicode="x" d="M31 0l370 555l-356 535h348l185 -318l180 318h338l-359 -535l371 -555h-354l-189 328l-188 -328h-346z" />
<glyph unicode="y" d="M20 1090h320l233 -803l228 803h303l-375 -1072q-102 -305 -169.5 -380.5t-252.5 -75.5l-129 4v229l55 -4q88 0 123 25q47 33 66 139z" />
<glyph unicode="z" horiz-adv-x="1024" d="M41 0v223l559 637h-520v230h883v-236l-551 -618h571v-236h-942z" />
<glyph unicode="{" horiz-adv-x="796" d="M98 444v189q66 0 117 29q76 43 76 126v410q0 135 94 213q82 68 193 68h170v-181h-93q-55 0 -84.5 -27.5t-29.5 -107.5v-401q-14 -115 -99 -174q-57 -39 -135 -47q78 -12 133 -52q86 -61 101 -174v-401q0 -61 16 -90q27 -45 98 -45h93v-180h-170q-111 0 -193 67 q-94 78 -94 213v410q0 84 -74 125q-53 30 -119 30z" />
<glyph unicode="|" horiz-adv-x="573" d="M172 -39v1548h229v-1548h-229z" />
<glyph unicode="}" horiz-adv-x="796" d="M49 -221h92q55 0 85 27.5t30 107.5v401q14 115 98 174q57 39 135 48q-78 12 -133 51q-86 61 -100 174v401q0 61 -16 90q-27 45 -99 45h-92v181h170q111 0 193 -68q94 -78 94 -213v-410q0 -84 74 -124q53 -31 118 -31v-189q-66 0 -116 -28q-76 -43 -76 -127v-410 q0 -135 -94 -213q-82 -68 -193 -67h-170v180z" />
<glyph unicode="~" horiz-adv-x="1196" d="M125 518q41 80 92 121q68 55 164 55q51 0 111 -18q39 -12 116 -47q55 -25 115.5 -50.5t93.5 -25.5q53 0 103 47q29 29 77 102l74 -184q-63 -88 -102 -121q-68 -55 -154 -55q-66 0 -133 29q-18 8 -78.5 40.5t-103.5 49.5q-63 23 -129 22q-61 0 -107 -47q-35 -37 -65 -102z " />
<glyph d="M59 289q0 154 86 240.5t232 107.5l258 39q47 6 67 20q33 23 33 66q0 80 -65 108q-41 18 -123 19q-96 0 -139 -51q-29 -33 -37 -101h-277q23 225 172 316q111 66 316 65q164 0 274 -55q160 -80 160 -260v-590q0 -90 16.5 -125t46.5 -45v-43h-309q-20 61 -27 129 q-70 -74 -127 -104q-94 -53 -225 -54q-137 0 -227 74q-105 86 -105 244zM346 307q0 -68 45 -102q37 -29 88 -29q102 0 179 59.5t77 155.5v139q-20 -16 -65 -31.5t-136.5 -29.5t-130.5 -41q-57 -39 -57 -121zM219 1237v152h706v-152h-706z" />
<glyph horiz-adv-x="1251" d="M70 557q0 270 135 422q125 139 317 139q123 0 209 -57q59 -41 107 -113l4 522h286v-1470h-280v137q-51 -86 -141 -129q-78 -37 -179 -37q-227 0 -350 181q-108 159 -108 405zM365 537q0 -125 47 -213q63 -117 188 -117q127 0 195 96q59 84 59 217q0 152 -49 240 q-61 111 -197 110q-127 0 -190 -102q-53 -86 -53 -231zM438 -400v236h258v-236h-258z" />
<glyph horiz-adv-x="796" d="M131 0v1090h275v-189q76 133 143 175t160 42l55 -4v-291q-18 2 -36.5 3t-45.5 1q-152 0 -215 -84q-49 -63 -49 -176v-567h-287zM145 -400v236h258v-236h-258z" />
<glyph horiz-adv-x="796" d="M88 1237v152h707v-152h-707zM131 0v1090h275v-189q76 133 143 175t160 42l55 -4v-291q-18 2 -36.5 3t-45.5 1q-152 0 -215 -84q-49 -63 -49 -176v-567h-287zM145 -164h258v-235h-258v235z" />
<glyph d="M61 348h295q0 -76 54.5 -118t183.5 -42q96 0 145 41q37 31 37 72q0 68 -174 107q-258 55 -326 88q-176 82 -176 258q0 143 93 241q117 123 348 123q205 0 323 -63q166 -90 166 -297h-280q-12 70 -41 98q-45 45 -152 45q-104 0 -145 -35q-31 -27 -31 -71q0 -63 176 -103 q252 -55 328 -90q178 -84 178 -256q0 -209 -174 -305q-127 -70 -303 -70q-219 0 -355 78q-170 98 -170 299zM440 1237l193 299h315l-301 -299h-207z" />
<glyph d="M61 348h295q0 -76 54.5 -118t183.5 -42q96 0 145 41q37 31 37 72q0 68 -174 107q-258 55 -326 88q-176 82 -176 258q0 143 93 241q117 123 348 123q205 0 323 -63q166 -90 166 -297h-280q-12 70 -41 98q-45 45 -152 45q-104 0 -145 -35q-31 -27 -31 -71q0 -63 176 -103 q252 -55 328 -90q178 -84 178 -256q0 -209 -174 -305q-127 -70 -303 -70q-219 0 -355 78q-170 98 -170 299zM446 -400v236h258v-236h-258z" />
<glyph horiz-adv-x="1478" d="M156 0v1470h649q332 0 485 -245q113 -180 113 -455q0 -297 -123 -502q-160 -268 -487 -268h-637zM457 254h299q172 0 260 156q74 131 74 338q0 287 -119 397q-78 72 -219 72h-295v-963zM551 -400v236h258v-236h-258z" />
<glyph horiz-adv-x="1478" d="M145 0v1470h308v-557h573v557h307v-1470h-307v659h-573v-659h-308zM590 -400v236h258v-236h-258z" />
<glyph unicode="&#xa1;" horiz-adv-x="681" d="M184 -6l82 688h152l82 -688v-375h-316v375zM193 801v289h299v-289h-299z" />
<glyph unicode="&#xa2;" horiz-adv-x="1251" d="M156 0v1470h307v-1204h731v-266h-1038zM516 -400v236h258v-236h-258z" />
<glyph unicode="&#xa3;" d="M57 657v123h119q-49 104 -66.5 161.5t-17.5 129.5q0 141 107 254q137 145 383 145q197 0 325 -94q168 -123 168 -379h-268q-18 127 -53 174q-51 70 -174 70q-106 0 -160 -70q-41 -53 -41 -118q0 -35 13.5 -74t84.5 -199h293v-123h-244q8 -53 9.5 -70.5t1.5 -37.5 q0 -49 -11 -86q-20 -74 -77 -141q-29 -37 -121 -111l4 -4q61 25 120.5 39t110.5 14q39 0 73 -5t77 -19.5t66.5 -20.5t37.5 -6q47 0 105.5 22.5t101.5 51.5l84 -224q-68 -41 -143.5 -66.5t-167.5 -25.5q-45 0 -98.5 10.5t-107.5 29t-103.5 30.5t-88.5 12q-51 0 -106 -20 q-10 -4 -117 -52l-110 199q47 18 124 98q102 106 103 201q0 47 -13.5 95t-33.5 87h-189z" />
<glyph unicode="&#xa4;" horiz-adv-x="1705" d="M141 0v1470h449l266 -1159l266 1159h445v-1470h-287v1229l-279 -1229h-301l-268 1229l-4 -1229h-287zM731 1638v236h258v-236h-258z" />
<glyph unicode="&#xa5;" horiz-adv-x="1478" d="M141 0v1470h324l584 -1024l4 1024h286v-1470h-307l-600 1049l-4 -1049h-287zM631 1638v236h258v-236h-258z" />
<glyph unicode="&#xa6;" horiz-adv-x="1478" d="M141 0v1470h324l584 -1024l4 1024h286v-1470h-307l-600 1049l-4 -1049h-287zM623 -400v236h258v-236h-258z" />
<glyph unicode="&#xa7;" d="M70 614q0 88 55 160q47 61 135 111q-43 39 -70 90q-37 70 -36 147q0 150 106 254q115 113 307 113q172 0 279 -76q135 -96 135 -299h-260q0 72 -41 115t-119 43q-68 0 -107.5 -35t-39.5 -80q0 -70 78 -108l331 -166q119 -59 174 -123q72 -84 72 -211q0 -57 -41 -131 q-55 -98 -154 -144q47 -39 80 -94q47 -78 47 -168q0 -184 -135 -291q-125 -98 -307 -98q-238 0 -352 154q-78 104 -78 229h270q8 -74 41 -112q45 -53 140 -54q82 0 120 58q27 39 27 88t-28.5 77.5t-92.5 61.5l-313 160q-117 59 -166 125q-57 77 -57 204zM311 666 q0 -43 25.5 -74t69.5 -53l321 -172q88 49 88 135q0 43 -31.5 73.5t-85.5 57.5l-299 151q-43 -14 -65.5 -52.5t-22.5 -65.5z" />
<glyph unicode="&#xa8;" horiz-adv-x="681" d="M12 1257v236h258v-236h-258zM412 1257v236h258v-236h-258z" />
<glyph unicode="&#xa9;" horiz-adv-x="1509" d="M-23 737q0 352 236 570q219 203 543 202q322 0 542 -202q236 -217 236 -570q0 -352 -236 -571q-221 -205 -542 -205q-322 0 -543 205q-236 219 -236 571zM201 737q0 -264 159.5 -430t395.5 -166q231 0 393 166t162 430q0 262 -162 428t-393 166q-238 0 -396.5 -165 t-158.5 -429zM360 743q0 193 115 318t307 125q143 0 240.5 -81t122.5 -233h-176q-12 68 -63.5 102t-123.5 34q-100 0 -155.5 -70t-55.5 -190q0 -117 59.5 -194t155.5 -77q78 0 127.5 36t55.5 108h184q-25 -150 -127 -236t-240 -86q-190 0 -308 125.5t-118 318.5z" />
<glyph unicode="&#xaa;" horiz-adv-x="757" d="M45 1012q0 90 57.5 145t151.5 68l168 22q31 4 43 10q23 12 22 37q0 43 -35.5 56.5t-86.5 13.5q-63 0 -91 -27q-18 -18 -24 -57h-178q14 137 110 190q70 39 205 39q109 0 178 -32q102 -49 103 -158v-354q0 -51 11 -73t32 -28v-26h-201q-12 35 -16 77q-45 -41 -82 -61 q-63 -33 -148 -33q-92 0 -149 43q-70 52 -70 148zM68 565v164h614v-164h-614zM238 1022q0 -41 24.5 -58.5t59.5 -17.5q63 0 114 36t51 93v82q-16 -10 -41.5 -18.5t-80 -16.5t-74.5 -16q-53 -23 -53 -84z" />
<glyph unicode="&#xab;" d="M180 451v245l342 295v-237l-205 -181l205 -180v-237zM616 451v245l342 295v-237l-204 -181l204 -180v-237z" />
<glyph unicode="&#xac;" horiz-adv-x="1478" d="M156 0v1470h743q201 0 318 -96q145 -119 145 -319q0 -123 -60.5 -218.5t-166.5 -131.5q104 -47 139 -103q47 -78 47 -270q0 -174 9 -225.5t56 -67.5v-39h-339q-16 59 -24.5 120.5t-8.5 176.5q0 168 -33 215q-45 63 -207 63h-317v-575h-301zM457 823h360q123 0 180.5 46 t57.5 155q0 76 -39 125q-55 68 -176 68h-383v-394zM623 -400v236h258v-236h-258z" />
<glyph unicode="&#xad;" horiz-adv-x="1478" d="M156 0v1470h743q201 0 318 -96q145 -119 145 -319q0 -123 -60.5 -218.5t-166.5 -131.5q104 -47 139 -103q47 -78 47 -270q0 -174 9 -225.5t56 -67.5v-39h-339q-16 59 -24.5 120.5t-8.5 176.5q0 168 -33 215q-45 63 -207 63h-317v-575h-301zM397 1618v151h707v-151h-707z M457 823h360q123 0 180.5 46t57.5 155q0 76 -39 125q-55 68 -176 68h-383v-394zM623 -164h258v-235h-258v235z" />
<glyph unicode="&#xae;" horiz-adv-x="1366" d="M80 453h295q0 -90 53 -150q80 -88 258 -88q131 0 209 37q98 47 98 154q0 80 -73 120q-49 27 -193 62l-158 37q-236 55 -321 114q-145 100 -146 318q0 170 103 286q145 166 463 166q301 0 454 -170q119 -131 119 -305h-295q-10 88 -51 135q-74 86 -250 86q-104 0 -172 -36 q-84 -47 -84 -140q0 -76 53 -114q31 -23 103 -39l358 -88q182 -45 268 -117q117 -96 117 -279q0 -223 -147 -346q-162 -135 -432 -135q-358 0 -516 176q-113 126 -113 316zM567 1618l193 299h315l-301 -299h-207z" />
<glyph unicode="&#xaf;" horiz-adv-x="681" d="M-12 1237v152h706v-152h-706z" />
<glyph unicode="&#xb0;" horiz-adv-x="681" d="M121 1376q0 92 68.5 152.5t152.5 60.5t152.5 -60.5t68.5 -152.5t-68.5 -152.5t-152.5 -60.5t-149 58q-72 63 -72 155zM236 1376q0 -45 30.5 -75.5t75.5 -30.5t76 30.5t31 75.5t-31 76t-76 31t-75.5 -31t-30.5 -76z" />
<glyph unicode="&#xb1;" horiz-adv-x="1366" d="M80 453h295q0 -90 53 -150q80 -88 258 -88q131 0 209 37q98 47 98 154q0 80 -73 120q-49 27 -193 62l-158 37q-236 55 -321 114q-145 100 -146 318q0 170 103 286q145 166 463 166q301 0 454 -170q119 -131 119 -305h-295q-10 88 -51 135q-74 86 -250 86q-104 0 -172 -36 q-84 -47 -84 -140q0 -76 53 -114q31 -23 103 -39l358 -88q182 -45 268 -117q117 -96 117 -279q0 -223 -147 -346q-162 -135 -432 -135q-358 0 -516 176q-113 126 -113 316zM549 -400v236h258v-236h-258z" />
<glyph unicode="&#xb2;" horiz-adv-x="681" d="M18 580q0 96 35 163q49 96 174 181.5t152 105.5q88 72 88 154q8 37 -24.5 72.5t-96.5 35.5q-84 0 -117 -55q-20 -35 -20 -94h-180q0 184 123 262q78 49 186 49q141 0 232.5 -73.5t91.5 -202.5q0 -102 -60 -181q-45 -59 -121 -104q-94 -57 -136 -89t-62 -56h381v-168h-646 z" />
<glyph unicode="&#xb3;" horiz-adv-x="681" d="M16 846h185q-2 -53 18 -86q33 -51 117 -51q61 0 96 28.5t35 98.5q0 78 -68 104q-41 16 -135 16v131h31q66 0 94 13q55 25 55 96q0 39 -16 64q-27 41 -94 40q-63 0 -95 -33.5t-32 -92.5h-174q0 127 78.5 203.5t234.5 76.5q115 0 193 -51q100 -66 100 -193 q0 -66 -33 -107.5t-80 -60.5q70 -27 106 -79t36 -127q0 -123 -89.5 -202t-232.5 -79q-164 0 -247 77t-83 214z" />
<glyph unicode="&#xb4;" horiz-adv-x="681" d="M221 1237l193 299h315l-301 -299h-207z" />
<glyph unicode="&#xb5;" horiz-adv-x="1251" d="M29 1210v260h1196v-260h-445v-1210h-307v1210h-444zM496 -400v236h258v-236h-258z" />
<glyph unicode="&#xb6;" horiz-adv-x="1478" d="M147 496v974h314v-954q0 -145 73.5 -220t188.5 -75q154 0 225.5 72t71.5 209v968h313v-956q0 -283 -162 -422q-154 -131 -442 -131q-129 0 -233 33q-143 45 -234 145q-115 130 -115 357zM391 1618v152h706v-152h-706z" />
<glyph unicode="&#xb7;" horiz-adv-x="1935" d="M25 1036q109 0 223 -41q68 -25 137 -63l8 160l6 211q82 -20 207 -63.5t189 -76.5q33 49 76.5 105.5t91.5 109.5q49 -55 88 -104q47 -59 79 -111q68 35 187 77t209 63l6 -211l8 -160q59 33 137 61q121 43 224 43q-29 -63 -101 -321q-51 -184 -114 -238q68 -33 116.5 -127 t95.5 -184q-115 0 -227 18q-53 8 -133 29l-6 -63q-4 -33 -10 -71t-6 -54q-90 12 -211 34.5t-183 38.5l-71 -53v-227q0 -31 -23.5 -50.5t-64.5 -19.5q-86 0 -86 70v227l-72 53q-70 -18 -182.5 -39.5t-212.5 -33.5q0 23 -7.5 65.5t-7.5 59.5l-6 63q-74 -20 -178.5 -33.5 t-183.5 -13.5q78 158 117.5 221.5t95.5 89.5q-61 51 -113 236q-69 251 -102 323zM119 967q59 -213 88 -305q51 -164 141 -164h119q-14 12 -29.5 33.5t-25.5 41.5q-20 49 -25.5 98.5t-5.5 143.5v49q-92 45 -135 62q-64 25 -127 41zM137 227q98 12 145.5 20.5t98.5 20.5 q-2 14 -2 26v15q0 59 35 103l32 28h-98q-88 0 -133 -69zM449 293q0 -29 8 -94.5t12 -108.5q158 23 281 55q-70 57 -105 108.5t-35 98.5q0 57 58 88h-13q-119 0 -162.5 -36.5t-43.5 -110.5zM451 793q0 -152 36 -215q47 -80 168 -80h50q-49 33 -73 82t-24 112q0 88 41 193.5 t113 224.5q-59 33 -134 60.5t-161 50.5q0 -92 -4 -174q-12 -246 -12 -254zM680 692q0 -92 66.5 -143t216.5 -51t216 51t66 143q0 111 -92 289q-68 131 -190 305q-160 -225 -228 -381q-55 -125 -55 -213zM684 352q0 -55 80 -135q68 -68 199 -158q133 92 198 158q80 80 80 135 q0 43 -66.5 65.5t-211.5 22.5q-143 0 -211 -22.5t-68 -65.5zM942 0v-182q4 -4 9 -8.5t12 -4.5q8 0 16 7q2 4 4 6v180l-20 -14zM1163 1110q74 -121 114 -223.5t40 -194.5q0 -66 -21.5 -113t-72.5 -81h47q121 0 166 77q39 66 39 216q0 53 -8.5 196t-8.5 234q-78 -20 -156 -49 t-139 -62zM1176 145q123 -33 280 -55q0 10 17 135q6 49 6 68q0 76 -39 108q-47 39 -170 39h-13q59 -33 60 -88q0 -45 -36.5 -97.5t-104.5 -109.5zM1460 498h117q92 0 141 161q43 154 88 308q-72 -18 -125 -39q-14 -6 -137 -64v-92q0 -74 -5 -111.5t-26 -87.5 q-24 -48 -53 -75zM1479 440l32 -28q35 -37 35 -99q0 -29 -2 -45q55 -14 100.5 -21t143.5 -20q-49 100 -76 142q-47 72 -135 71h-98z" />
<glyph unicode="&#xb8;" horiz-adv-x="681" d="M12 -416l45 99q49 -14 88 -23.5t70 -9.5q35 0 65.5 22.5t30.5 57.5t-22.5 54t-57.5 19q-14 0 -30.5 -3t-50.5 -13l-44 41l113 172h121l-78 -113q33 8 62 9q84 0 135 -52q43 -43 43 -108q0 -90 -71 -146.5t-183 -56.5q-57 0 -103.5 10t-132.5 41z" />
<glyph unicode="&#xb9;" horiz-adv-x="681" d="M53 1176v127h27q121 0 182 51q49 41 49 100h174v-874h-206v596h-226z" />
<glyph unicode="&#xba;" horiz-adv-x="747" d="M12 1165q0 137 82 232q98 113 281 112q180 0 278 -112q84 -96 84 -232q0 -137 -82 -231q-98 -113 -280 -113q-180 0 -279 113q-84 96 -84 231zM68 565v164h614v-164h-614zM213 1165q0 -84 43 -140t119 -56t119 55t43 141q0 84 -43 140.5t-119 56.5t-119 -55.5t-43 -141.5 z" />
<glyph unicode="&#xbb;" d="M180 156v237l205 180l-205 181v237l342 -295v-245zM616 156v237l205 180l-205 181v237l342 -295v-245z" />
<glyph unicode="&#xbc;" horiz-adv-x="1708" d="M53 1176v127h27q121 0 182 51q49 41 49 100h174v-874h-206v596h-226zM279 -39l876 1493h160l-875 -1493h-161zM897 184v152l348 532h221v-542h103v-142h-103v-184h-194v184h-375zM1044 322h236l4 374z" />
<glyph unicode="&#xbd;" horiz-adv-x="1708" d="M53 1176v127h27q121 0 182 51q49 41 49 100h174v-874h-206v596h-226zM279 -39l876 1493h160l-875 -1493h-161zM981 0q0 96 35 164q49 96 174 181t151 106q88 72 89 153q8 37 -25 73t-96 36q-84 0 -117 -56q-20 -35 -21 -94h-180q0 184 123 262q78 49 186 49 q141 0 232.5 -73.5t91.5 -202.5q0 -102 -59 -180q-45 -59 -121 -105q-94 -57 -136 -88.5t-63 -56.5h381v-168h-645z" />
<glyph unicode="&#xbe;" horiz-adv-x="593" d="M92 748v624h72v-624q0 -158 26.5 -212.5t106.5 -54.5q76 0 104.5 56.5t28.5 210.5v624h72v-624q0 -164 -31 -242q-23 -55 -65 -76q33 -18 54 -49t21 -74q0 -33 -76.5 -140.5t-76.5 -176.5h-62q0 70 -76.5 177t-76.5 140q0 45 20.5 76t52.5 47q-45 20 -65 76 q-29 74 -29 242zM184 307q0 -31 45 -86q33 -43 68 -84q8 14 65 84q47 57 48 86q0 37 -39 64.5t-74 27.5q-37 0 -75 -26.5t-38 -65.5z" />
<glyph unicode="&#xbf;" horiz-adv-x="1251" d="M113 37q0 119 63 209q53 74 184 168q72 51 95 92q31 55 30 158h271q0 -160 -33 -232q-41 -88 -176 -184q-127 -88 -127 -203q0 -111 65 -162q51 -41 133 -41q94 0 150.5 52.5t71.5 183.5l288 2q0 -244 -161 -373q-133 -106 -330 -106q-246 0 -389 120q-135 113 -135 316z M465 801v289h299v-289h-299z" />
<glyph unicode="&#xc0;" horiz-adv-x="1478" d="M41 0l524 1470h355l518 -1470h-334l-94 303h-543l-102 -303h-324zM549 557h375l-183 582zM352 1917h315l193 -299h-207z" />
<glyph unicode="&#xc1;" horiz-adv-x="1478" d="M41 0l524 1470h355l518 -1470h-334l-94 303h-543l-102 -303h-324zM549 557h375l-183 582zM620 1618l193 299h315l-301 -299h-207z" />
<glyph unicode="&#xc2;" horiz-adv-x="1478" d="M41 0l524 1470h355l518 -1470h-334l-94 303h-543l-102 -303h-324zM549 557h375l-183 582zM379 1618l233 299h256l233 -299h-231l-131 168l-129 -168h-231z" />
<glyph unicode="&#xc3;" horiz-adv-x="1478" d="M41 0l524 1470h355l518 -1470h-334l-94 303h-543l-102 -303h-324zM549 557h375l-183 582zM364 1630q8 43 21.5 82t38.5 74q33 45 73 68q51 29 115 28q45 0 82 -12q41 -18 65 -27q47 -18 77 -26.5t50 -8.5q45 0 66.5 24t30.5 58h133q-20 -123 -77.5 -184t-145.5 -61 q-35 0 -70 8t-77 21.5t-75 23.5q-59 20 -79 20q-47 0 -74 -34q-16 -23 -23 -54h-131z" />
<glyph unicode="&#xc4;" horiz-adv-x="1478" d="M41 0l524 1470h355l518 -1470h-334l-94 303h-543l-102 -303h-324zM549 557h375l-183 582zM411 1638v236h258v-236h-258zM811 1638v236h258v-236h-258z" />
<glyph unicode="&#xc5;" horiz-adv-x="1478" d="M41 0l524 1470h355l518 -1470h-334l-94 303h-543l-102 -303h-324zM549 557h375l-183 582zM520 1757q0 92 68.5 152.5t152.5 60.5t152.5 -60.5t68.5 -152.5t-68.5 -152.5t-152.5 -60.5t-149 58q-72 63 -72 155zM635 1757q0 -45 30.5 -75.5t75.5 -30.5t76 30.5t31 75.5 t-31 76t-76 31t-75.5 -31t-30.5 -76z" />
<glyph unicode="&#xc6;" horiz-adv-x="2048" d="M10 0l537 1470h1392v-260h-759v-309h684v-260h-684v-381h774v-260h-1075v313h-441l-106 -313h-322zM518 555h361v655h-134z" />
<glyph unicode="&#xc7;" horiz-adv-x="1478" d="M90 733q0 373 195 582q182 195 481 194q301 0 481 -178q154 -152 154 -342h-307q-31 109 -76 160q-84 94 -250 94q-141 0 -238 -100q-127 -133 -127 -414q0 -217 84 -350q96 -152 281 -152q129 0 213 71t113 206h307q-49 -252 -203 -391q-168 -152 -436 -152 q-305 0 -483 195q-189 204 -189 577zM452 -416l45 99q49 -14 88 -23.5t70 -9.5q35 0 65.5 22.5t30.5 57.5t-22.5 54t-57.5 19q-14 0 -30.5 -3t-50.5 -13l-44 41l113 172h121l-78 -113q33 8 62 9q84 0 135 -52q43 -43 43 -108q0 -90 -71 -146.5t-183 -56.5q-57 0 -103.5 10 t-132.5 41z" />
<glyph unicode="&#xc8;" horiz-adv-x="1366" d="M156 0v1470h1081v-260h-780v-309h717v-260h-717v-381h815v-260h-1116zM295 1917h315l193 -299h-207z" />
<glyph unicode="&#xc9;" horiz-adv-x="1366" d="M156 0v1470h1081v-260h-780v-309h717v-260h-717v-381h815v-260h-1116zM563 1618l193 299h315l-301 -299h-207z" />
<glyph unicode="&#xca;" horiz-adv-x="1366" d="M156 0v1470h1081v-260h-780v-309h717v-260h-717v-381h815v-260h-1116zM322 1618l233 299h256l233 -299h-231l-131 168l-129 -168h-231z" />
<glyph unicode="&#xcb;" horiz-adv-x="1366" d="M156 0v1470h1081v-260h-780v-309h717v-260h-717v-381h815v-260h-1116zM354 1638v236h258v-236h-258zM754 1638v236h258v-236h-258z" />
<glyph unicode="&#xcc;" horiz-adv-x="569" d="M131 0v1470h307v-1470h-307zM-102 1917h315l193 -299h-207z" />
<glyph unicode="&#xcd;" horiz-adv-x="569" d="M131 0v1470h307v-1470h-307zM166 1618l193 299h315l-301 -299h-207z" />
<glyph unicode="&#xce;" horiz-adv-x="569" d="M131 0v1470h307v-1470h-307zM-75 1618l233 299h256l233 -299h-231l-131 168l-129 -168h-231z" />
<glyph unicode="&#xcf;" horiz-adv-x="569" d="M131 0v1470h307v-1470h-307zM-43 1638v236h258v-236h-258zM357 1638v236h258v-236h-258z" />
<glyph unicode="&#xd0;" horiz-adv-x="1478" d="M-10 647v254h166v569h649q332 0 485 -245q113 -180 113 -455q0 -297 -123 -502q-160 -268 -487 -268h-637v647h-166zM457 254h299q172 0 260 156q74 131 74 338q0 287 -119 397q-78 72 -219 72h-295v-316h340v-254h-340v-393z" />
<glyph unicode="&#xd1;" horiz-adv-x="1478" d="M141 0v1470h324l584 -1024l4 1024h286v-1470h-307l-600 1049l-4 -1049h-287zM364 1630q8 43 21.5 82t38.5 74q33 45 73 68q51 29 115 28q45 0 82 -12q41 -18 65 -27q47 -18 77 -26.5t50 -8.5q45 0 66.5 24t30.5 58h133q-20 -123 -77.5 -184t-145.5 -61q-35 0 -70 8 t-77 21.5t-75 23.5q-59 20 -79 20q-47 0 -74 -34q-16 -23 -23 -54h-131z" />
<glyph unicode="&#xd2;" horiz-adv-x="1593" d="M90 735q0 315 139 508q109 152 297 219q129 47 271 47q139 0 268 -47q188 -68 297 -219q141 -195 141 -508q0 -315 -139 -508q-109 -152 -297 -219q-129 -47 -270 -47q-139 0 -269 47q-188 68 -297 219q-141 195 -141 508zM397 735q0 -279 138 -411q104 -102 262 -103 q156 0 262 103q137 133 137 411q0 279 -137 412q-104 102 -262 102q-156 0 -262 -102q-138 -133 -138 -412zM410 1917h315l193 -299h-207z" />
<glyph unicode="&#xd3;" horiz-adv-x="1593" d="M90 735q0 315 139 508q109 152 297 219q129 47 271 47q139 0 268 -47q188 -68 297 -219q141 -195 141 -508q0 -315 -139 -508q-109 -152 -297 -219q-129 -47 -270 -47q-139 0 -269 47q-188 68 -297 219q-141 195 -141 508zM397 735q0 -279 138 -411q104 -102 262 -103 q156 0 262 103q137 133 137 411q0 279 -137 412q-104 102 -262 102q-156 0 -262 -102q-138 -133 -138 -412zM678 1618l193 299h315l-301 -299h-207z" />
<glyph unicode="&#xd4;" horiz-adv-x="1593" d="M90 735q0 315 139 508q109 152 297 219q129 47 271 47q139 0 268 -47q188 -68 297 -219q141 -195 141 -508q0 -315 -139 -508q-109 -152 -297 -219q-129 -47 -270 -47q-139 0 -269 47q-188 68 -297 219q-141 195 -141 508zM397 735q0 -279 138 -411q104 -102 262 -103 q156 0 262 103q137 133 137 411q0 279 -137 412q-104 102 -262 102q-156 0 -262 -102q-138 -133 -138 -412zM437 1618l233 299h256l233 -299h-231l-131 168l-129 -168h-231z" />
<glyph unicode="&#xd5;" horiz-adv-x="1593" d="M90 735q0 315 139 508q109 152 297 219q129 47 271 47q139 0 268 -47q188 -68 297 -219q141 -195 141 -508q0 -315 -139 -508q-109 -152 -297 -219q-129 -47 -270 -47q-139 0 -269 47q-188 68 -297 219q-141 195 -141 508zM397 735q0 -279 138 -411q104 -102 262 -103 q156 0 262 103q137 133 137 411q0 279 -137 412q-104 102 -262 102q-156 0 -262 -102q-138 -133 -138 -412zM422 1630q8 43 21.5 82t38.5 74q33 45 73 68q51 29 115 28q45 0 82 -12q41 -18 65 -27q47 -18 77 -26.5t50 -8.5q45 0 66.5 24t30.5 58h133q-20 -123 -77.5 -184 t-145.5 -61q-35 0 -70 8t-77 21.5t-75 23.5q-59 20 -79 20q-47 0 -74 -34q-16 -23 -23 -54h-131z" />
<glyph unicode="&#xd6;" horiz-adv-x="1593" d="M90 735q0 315 139 508q109 152 297 219q129 47 271 47q139 0 268 -47q188 -68 297 -219q141 -195 141 -508q0 -315 -139 -508q-109 -152 -297 -219q-129 -47 -270 -47q-139 0 -269 47q-188 68 -297 219q-141 195 -141 508zM397 735q0 -279 138 -411q104 -102 262 -103 q156 0 262 103q137 133 137 411q0 279 -137 412q-104 102 -262 102q-156 0 -262 -102q-138 -133 -138 -412zM469 1638v236h258v-236h-258zM869 1638v236h258v-236h-258z" />
<glyph unicode="&#xd7;" horiz-adv-x="1566" d="M102 0h1362v1362h-1362v-1362zM195 92v1178h1177v-1178h-1177z" />
<glyph unicode="&#xd8;" horiz-adv-x="1593" d="M68 23l174 190q-72 90 -109 211q-43 137 -43 311q0 315 139 508q109 152 297 219q129 47 271 47q109 0 217 -30q147 -41 258 -136l166 183l86 -78l-172 -188q70 -90 110.5 -222.5t40.5 -302.5q0 -315 -139 -508q-109 -152 -297 -219q-129 -47 -270 -47q-115 0 -217 29 q-147 41 -258 139l-168 -184zM397 735q0 -92 14.5 -162.5t41.5 -126.5l622 682q-57 63 -131 92t-147 29q-156 0 -262 -102q-138 -133 -138 -412zM516 344q57 -66 131 -94.5t150 -28.5q156 0 262 103q137 133 137 411q0 92 -14.5 164t-42.5 127z" />
<glyph unicode="&#xd9;" horiz-adv-x="1478" d="M147 496v974h314v-954q0 -145 73.5 -220t188.5 -75q154 0 225.5 72t71.5 209v968h313v-956q0 -283 -162 -422q-154 -131 -442 -131q-129 0 -233 33q-143 45 -234 145q-115 130 -115 357zM352 1917h315l193 -299h-207z" />
<glyph unicode="&#xda;" horiz-adv-x="1478" d="M147 496v974h314v-954q0 -145 73.5 -220t188.5 -75q154 0 225.5 72t71.5 209v968h313v-956q0 -283 -162 -422q-154 -131 -442 -131q-129 0 -233 33q-143 45 -234 145q-115 130 -115 357zM620 1618l193 299h315l-301 -299h-207z" />
<glyph unicode="&#xdb;" horiz-adv-x="1478" d="M147 496v974h314v-954q0 -145 73.5 -220t188.5 -75q154 0 225.5 72t71.5 209v968h313v-956q0 -283 -162 -422q-154 -131 -442 -131q-129 0 -233 33q-143 45 -234 145q-115 130 -115 357zM379 1618l233 299h256l233 -299h-231l-131 168l-129 -168h-231z" />
<glyph unicode="&#xdc;" horiz-adv-x="1478" d="M147 496v974h314v-954q0 -145 73.5 -220t188.5 -75q154 0 225.5 72t71.5 209v968h313v-956q0 -283 -162 -422q-154 -131 -442 -131q-129 0 -233 33q-143 45 -234 145q-115 130 -115 357zM411 1638v236h258v-236h-258zM811 1638v236h258v-236h-258z" />
<glyph unicode="&#xdd;" horiz-adv-x="1366" d="M31 1470h362l305 -639l291 639h348l-491 -919v-551h-307v555zM563 1618l193 299h315l-301 -299h-207z" />
<glyph unicode="&#xde;" horiz-adv-x="1366" d="M156 0v1470h307v-200h364q213 0 335 -128t122 -347q0 -156 -86 -285q-123 -184 -383 -184h-352v-326h-307zM463 580h285q147 0 200 90q29 49 29 139q0 109 -63.5 158t-206.5 49h-244v-436z" />
<glyph unicode="&#xdf;" horiz-adv-x="1251" d="M141 0v1104q0 166 115 272q129 121 362 121q178 0 293 -59q190 -98 191 -342q0 -86 -43 -155t-107 -99q145 -63 199 -180q35 -76 35 -193q0 -203 -109 -336q-133 -162 -393 -162q-39 0 -113 13v225l60 -2q268 0 268 254q0 152 -108 211q-72 39 -205 39v198q109 0 155 25 q74 39 74 153q0 88 -54 134.5t-153 46.5q-72 0 -119 -37q-61 -47 -61 -146v-1085h-287z" />
<glyph unicode="&#xe0;" d="M59 289q0 154 86 240.5t232 107.5l258 39q47 6 67 20q33 23 33 66q0 80 -65 108q-41 18 -123 19q-96 0 -139 -51q-29 -33 -37 -101h-277q23 225 172 316q111 66 316 65q164 0 274 -55q160 -80 160 -260v-590q0 -90 16.5 -125t46.5 -45v-43h-309q-20 61 -27 129 q-70 -74 -127 -104q-94 -53 -225 -54q-137 0 -227 74q-105 86 -105 244zM346 307q0 -68 45 -102q37 -29 88 -29q102 0 179 59.5t77 155.5v139q-20 -16 -65 -31.5t-136.5 -29.5t-130.5 -41q-57 -39 -57 -121zM182 1536h315l193 -299h-207z" />
<glyph unicode="&#xe1;" d="M59 289q0 154 86 240.5t232 107.5l258 39q47 6 67 20q33 23 33 66q0 80 -65 108q-41 18 -123 19q-96 0 -139 -51q-29 -33 -37 -101h-277q23 225 172 316q111 66 316 65q164 0 274 -55q160 -80 160 -260v-590q0 -90 16.5 -125t46.5 -45v-43h-309q-20 61 -27 129 q-70 -74 -127 -104q-94 -53 -225 -54q-137 0 -227 74q-105 86 -105 244zM346 307q0 -68 45 -102q37 -29 88 -29q102 0 179 59.5t77 155.5v139q-20 -16 -65 -31.5t-136.5 -29.5t-130.5 -41q-57 -39 -57 -121zM450 1237l193 299h315l-301 -299h-207z" />
<glyph unicode="&#xe2;" d="M59 289q0 154 86 240.5t232 107.5l258 39q47 6 67 20q33 23 33 66q0 80 -65 108q-41 18 -123 19q-96 0 -139 -51q-29 -33 -37 -101h-277q23 225 172 316q111 66 316 65q164 0 274 -55q160 -80 160 -260v-590q0 -90 16.5 -125t46.5 -45v-43h-309q-20 61 -27 129 q-70 -74 -127 -104q-94 -53 -225 -54q-137 0 -227 74q-105 86 -105 244zM346 307q0 -68 45 -102q37 -29 88 -29q102 0 179 59.5t77 155.5v139q-20 -16 -65 -31.5t-136.5 -29.5t-130.5 -41q-57 -39 -57 -121zM209 1237l233 299h256l233 -299h-231l-131 168l-129 -168h-231z " />
<glyph unicode="&#xe3;" d="M59 289q0 154 86 240.5t232 107.5l258 39q47 6 67 20q33 23 33 66q0 80 -65 108q-41 18 -123 19q-96 0 -139 -51q-29 -33 -37 -101h-277q23 225 172 316q111 66 316 65q164 0 274 -55q160 -80 160 -260v-590q0 -90 16.5 -125t46.5 -45v-43h-309q-20 61 -27 129 q-70 -74 -127 -104q-94 -53 -225 -54q-137 0 -227 74q-105 86 -105 244zM346 307q0 -68 45 -102q37 -29 88 -29q102 0 179 59.5t77 155.5v139q-20 -16 -65 -31.5t-136.5 -29.5t-130.5 -41q-57 -39 -57 -121zM194 1249q8 43 21.5 82t38.5 74q33 45 73 68q51 29 115 28 q45 0 82 -12q41 -18 65 -27q47 -18 77 -26.5t50 -8.5q45 0 66.5 24t30.5 58h133q-20 -123 -77.5 -184t-145.5 -61q-35 0 -70 8t-77 21.5t-75 23.5q-59 20 -79 20q-47 0 -74 -34q-16 -23 -23 -54h-131z" />
<glyph unicode="&#xe4;" d="M59 289q0 154 86 240.5t232 107.5l258 39q47 6 67 20q33 23 33 66q0 80 -65 108q-41 18 -123 19q-96 0 -139 -51q-29 -33 -37 -101h-277q23 225 172 316q111 66 316 65q164 0 274 -55q160 -80 160 -260v-590q0 -90 16.5 -125t46.5 -45v-43h-309q-20 61 -27 129 q-70 -74 -127 -104q-94 -53 -225 -54q-137 0 -227 74q-105 86 -105 244zM346 307q0 -68 45 -102q37 -29 88 -29q102 0 179 59.5t77 155.5v139q-20 -16 -65 -31.5t-136.5 -29.5t-130.5 -41q-57 -39 -57 -121zM241 1257v236h258v-236h-258zM641 1257v236h258v-236h-258z" />
<glyph unicode="&#xe5;" d="M59 289q0 154 86 240.5t232 107.5l258 39q47 6 67 20q33 23 33 66q0 80 -65 108q-41 18 -123 19q-96 0 -139 -51q-29 -33 -37 -101h-277q23 225 172 316q111 66 316 65q164 0 274 -55q160 -80 160 -260v-590q0 -90 16.5 -125t46.5 -45v-43h-309q-20 61 -27 129 q-70 -74 -127 -104q-94 -53 -225 -54q-137 0 -227 74q-105 86 -105 244zM346 307q0 -68 45 -102q37 -29 88 -29q102 0 179 59.5t77 155.5v139q-20 -16 -65 -31.5t-136.5 -29.5t-130.5 -41q-57 -39 -57 -121zM350 1376q0 92 68.5 152.5t152.5 60.5t152.5 -60.5t68.5 -152.5 t-68.5 -152.5t-152.5 -60.5t-149 58q-72 63 -72 155zM465 1376q0 -45 30.5 -75.5t75.5 -30.5t76 30.5t31 75.5t-31 76t-76 31t-75.5 -31t-30.5 -76z" />
<glyph unicode="&#xe6;" horiz-adv-x="1820" d="M59 305q0 115 58 191q72 94 219 120l268 46q98 16 123 34.5t25 71.5q0 66 -49.5 93.5t-151.5 27.5q-80 0 -126 -37t-46 -117h-281q0 217 162 312q123 72 330 71q115 0 213 -43q70 -31 123 -78q72 55 118 78q90 43 201 43q205 0 336 -112q176 -152 176 -488v-51h-747 q14 -143 75.5 -204.5t180.5 -61.5q63 0 115.5 30.5t68.5 87.5h295q-53 -182 -197 -272q-121 -76 -282 -76q-178 0 -281 58q-59 33 -127 118q-51 -82 -162.5 -129t-249.5 -47q-207 0 -305 101q-82 83 -82 233zM346 303q0 -61 43 -94t119 -33q88 0 162.5 61.5t74.5 147.5v137 q-23 -20 -62.5 -32.5t-144 -28t-141.5 -39.5q-51 -35 -51 -119zM1018 653h444q-10 121 -82 181q-57 49 -139 49q-100 0 -155.5 -59.5t-67.5 -170.5z" />
<glyph unicode="&#xe7;" d="M70 514q0 279 123 434q133 170 399 170q178 0 305 -80q176 -111 176 -338h-291q-16 92 -73 140q-47 37 -117 37q-121 0 -180 -107q-47 -84 -47 -209q0 -195 54 -274.5t167 -79.5q96 0 151 76q43 59 43 114h291q-12 -141 -102 -254q-135 -172 -396 -172q-276 0 -405 185 q-98 141 -98 358zM282 -416l45 99q49 -14 88 -23.5t70 -9.5q35 0 65.5 22.5t30.5 57.5t-22.5 54t-57.5 19q-14 0 -30.5 -3t-50.5 -13l-44 41l113 172h121l-78 -113q33 8 62 9q84 0 135 -52q43 -43 43 -108q0 -90 -71 -146.5t-183 -56.5q-57 0 -103.5 10t-132.5 41z" />
<glyph unicode="&#xe8;" d="M47 567q0 182 82 324q133 227 440 227q205 0 336 -112q176 -152 176 -488v-51h-747q14 -143 75.5 -204.5t180.5 -61.5q63 0 115.5 30.5t68.5 87.5h295q-53 -182 -197 -272q-121 -76 -282 -76q-252 0 -387 129q-156 150 -156 467zM342 653h444q-10 121 -81 181 q-57 49 -140 49q-100 0 -155.5 -59.5t-67.5 -170.5zM182 1536h315l193 -299h-207z" />
<glyph unicode="&#xe9;" d="M47 567q0 182 82 324q133 227 440 227q205 0 336 -112q176 -152 176 -488v-51h-747q14 -143 75.5 -204.5t180.5 -61.5q63 0 115.5 30.5t68.5 87.5h295q-53 -182 -197 -272q-121 -76 -282 -76q-252 0 -387 129q-156 150 -156 467zM342 653h444q-10 121 -81 181 q-57 49 -140 49q-100 0 -155.5 -59.5t-67.5 -170.5zM450 1237l193 299h315l-301 -299h-207z" />
<glyph unicode="&#xea;" d="M47 567q0 182 82 324q133 227 440 227q205 0 336 -112q176 -152 176 -488v-51h-747q14 -143 75.5 -204.5t180.5 -61.5q63 0 115.5 30.5t68.5 87.5h295q-53 -182 -197 -272q-121 -76 -282 -76q-252 0 -387 129q-156 150 -156 467zM342 653h444q-10 121 -81 181 q-57 49 -140 49q-100 0 -155.5 -59.5t-67.5 -170.5zM209 1237l233 299h256l233 -299h-231l-131 168l-129 -168h-231z" />
<glyph unicode="&#xeb;" d="M47 567q0 182 82 324q133 227 440 227q205 0 336 -112q176 -152 176 -488v-51h-747q14 -143 75.5 -204.5t180.5 -61.5q63 0 115.5 30.5t68.5 87.5h295q-53 -182 -197 -272q-121 -76 -282 -76q-252 0 -387 129q-156 150 -156 467zM342 653h444q-10 121 -81 181 q-57 49 -140 49q-100 0 -155.5 -59.5t-67.5 -170.5zM241 1257v236h258v-236h-258zM641 1257v236h258v-236h-258z" />
<glyph unicode="&#xec;" horiz-adv-x="569" d="M141 0v1090h287v-1090h-287zM-102 1536h315l193 -299h-207z" />
<glyph unicode="&#xed;" horiz-adv-x="569" d="M141 0v1090h287v-1090h-287zM166 1237l193 299h315l-301 -299h-207z" />
<glyph unicode="&#xee;" horiz-adv-x="569" d="M141 0v1090h287v-1090h-287zM-75 1237l233 299h256l233 -299h-231l-131 168l-129 -168h-231z" />
<glyph unicode="&#xef;" horiz-adv-x="569" d="M141 0v1090h287v-1090h-287zM-43 1257v236h258v-236h-258zM357 1257v236h258v-236h-258z" />
<glyph unicode="&#xf0;" horiz-adv-x="1251" d="M70 543q0 229 141 378.5t364 149.5q82 0 145.5 -28.5t106.5 -84.5l4 5q-29 59 -82 125.5t-116 121.5l-221 -96l-129 107l221 96q-41 31 -82 55.5t-68 36.5l221 100q43 -18 80 -38.5t82 -51.5l209 90l127 -106l-207 -90q139 -131 221 -299q96 -197 97 -410 q0 -322 -178 -489q-152 -143 -373 -144q-231 0 -383 127q-180 152 -180 445zM365 535q0 -156 70.5 -239t193.5 -83t191.5 86t68.5 244q0 94 -47 172q-70 115 -215 114q-143 0 -213 -116q-49 -82 -49 -178z" />
<glyph unicode="&#xf1;" horiz-adv-x="1251" d="M133 0v1090h275v-160q70 104 148.5 146t182.5 42q166 0 272.5 -95t106.5 -269v-754h-287v662q0 92 -24 137q-41 78 -162 78q-98 0 -161.5 -66t-63.5 -186v-625h-287zM250 1249q8 43 21.5 82t38.5 74q33 45 73 68q51 29 115 28q45 0 82 -12q41 -18 65 -27q47 -18 77 -26.5 t50 -8.5q45 0 66.5 24t30.5 58h133q-20 -123 -77.5 -184t-145.5 -61q-35 0 -70 8t-77 21.5t-75 23.5q-59 20 -79 20q-47 0 -74 -34q-16 -23 -23 -54h-131z" />
<glyph unicode="&#xf2;" horiz-adv-x="1251" d="M70 545q0 281 168 434q152 139 389 139q238 0 389 -139q168 -154 168 -434q0 -281 -168 -434q-152 -139 -389 -140q-238 0 -389 140q-168 153 -168 434zM365 545q0 -135 47 -217q66 -115 215 -115q147 0 213 113q49 86 49 219q0 135 -47 217q-66 115 -215 115 q-147 0 -213 -113q-49 -86 -49 -219zM238 1536h315l193 -299h-207z" />
<glyph unicode="&#xf3;" horiz-adv-x="1251" d="M70 545q0 281 168 434q152 139 389 139q238 0 389 -139q168 -154 168 -434q0 -281 -168 -434q-152 -139 -389 -140q-238 0 -389 140q-168 153 -168 434zM365 545q0 -135 47 -217q66 -115 215 -115q147 0 213 113q49 86 49 219q0 135 -47 217q-66 115 -215 115 q-147 0 -213 -113q-49 -86 -49 -219zM506 1237l193 299h315l-301 -299h-207z" />
<glyph unicode="&#xf4;" horiz-adv-x="1251" d="M70 545q0 281 168 434q152 139 389 139q238 0 389 -139q168 -154 168 -434q0 -281 -168 -434q-152 -139 -389 -140q-238 0 -389 140q-168 153 -168 434zM365 545q0 -135 47 -217q66 -115 215 -115q147 0 213 113q49 86 49 219q0 135 -47 217q-66 115 -215 115 q-147 0 -213 -113q-49 -86 -49 -219zM265 1237l233 299h256l233 -299h-231l-131 168l-129 -168h-231z" />
<glyph unicode="&#xf5;" horiz-adv-x="1251" d="M70 545q0 281 168 434q152 139 389 139q238 0 389 -139q168 -154 168 -434q0 -281 -168 -434q-152 -139 -389 -140q-238 0 -389 140q-168 153 -168 434zM365 545q0 -135 47 -217q66 -115 215 -115q147 0 213 113q49 86 49 219q0 135 -47 217q-66 115 -215 115 q-147 0 -213 -113q-49 -86 -49 -219zM250 1249q8 43 21.5 82t38.5 74q33 45 73 68q51 29 115 28q45 0 82 -12q41 -18 65 -27q47 -18 77 -26.5t50 -8.5q45 0 66.5 24t30.5 58h133q-20 -123 -77.5 -184t-145.5 -61q-35 0 -70 8t-77 21.5t-75 23.5q-59 20 -79 20q-47 0 -74 -34 q-16 -23 -23 -54h-131z" />
<glyph unicode="&#xf6;" horiz-adv-x="1251" d="M70 545q0 281 168 434q152 139 389 139q238 0 389 -139q168 -154 168 -434q0 -281 -168 -434q-152 -139 -389 -140q-238 0 -389 140q-168 153 -168 434zM365 545q0 -135 47 -217q66 -115 215 -115q147 0 213 113q49 86 49 219q0 135 -47 217q-66 115 -215 115 q-147 0 -213 -113q-49 -86 -49 -219zM297 1257v236h258v-236h-258zM697 1257v236h258v-236h-258z" />
<glyph unicode="&#xf7;" horiz-adv-x="1830" d="M82 569h1515l-268 -268l53 -53l363 362l-363 363l-53 -53l268 -269h-1515v-82z" />
<glyph unicode="&#xf8;" horiz-adv-x="1251" d="M45 0l150 158q-61 74 -93 169t-32 218q0 281 168 434q152 139 389 139q215 0 366 -121l142 150l71 -66l-145 -151q59 -72 91 -166t32 -219q0 -281 -168 -434q-152 -139 -389 -140q-217 0 -363 119l-141 -149zM365 545q0 -45 7 -91t23 -87l416 438q-35 37 -78 54.5 t-106 17.5q-147 0 -213 -113q-49 -86 -49 -219zM446 283q63 -70 181 -70q147 0 213 113q49 86 49 219q0 57 -5 93t-24 81z" />
<glyph unicode="&#xf9;" horiz-adv-x="1251" d="M135 373v717h287v-676q0 -115 59 -164q45 -37 127 -37q88 0 146 49q76 66 75 199v629h287v-1090h-274v154q-109 -182 -336 -183q-170 0 -266 97q-105 104 -105 305zM238 1536h315l193 -299h-207z" />
<glyph unicode="&#xfa;" horiz-adv-x="1251" d="M135 373v717h287v-676q0 -115 59 -164q45 -37 127 -37q88 0 146 49q76 66 75 199v629h287v-1090h-274v154q-109 -182 -336 -183q-170 0 -266 97q-105 104 -105 305zM506 1237l193 299h315l-301 -299h-207z" />
<glyph unicode="&#xfb;" horiz-adv-x="1251" d="M135 373v717h287v-676q0 -115 59 -164q45 -37 127 -37q88 0 146 49q76 66 75 199v629h287v-1090h-274v154q-109 -182 -336 -183q-170 0 -266 97q-105 104 -105 305zM265 1237l233 299h256l233 -299h-231l-131 168l-129 -168h-231z" />
<glyph unicode="&#xfc;" horiz-adv-x="1251" d="M135 373v717h287v-676q0 -115 59 -164q45 -37 127 -37q88 0 146 49q76 66 75 199v629h287v-1090h-274v154q-109 -182 -336 -183q-170 0 -266 97q-105 104 -105 305zM297 1257v236h258v-236h-258zM697 1257v236h258v-236h-258z" />
<glyph unicode="&#xfd;" d="M20 1090h320l233 -803l228 803h303l-375 -1072q-102 -305 -169.5 -380.5t-252.5 -75.5l-129 4v229l55 -4q88 0 123 25q47 33 66 139zM450 1237l193 299h315l-301 -299h-207z" />
<glyph unicode="&#xfe;" horiz-adv-x="1251" d="M127 -426v1896h287v-520q49 68 104 107q90 61 213 61q190 0 316 -139q137 -154 137 -422q0 -248 -107 -405q-123 -180 -352 -181q-131 0 -215 62q-51 37 -92 106l-4 -565h-287zM401 520q0 -133 58 -217q66 -96 194 -96q123 0 187 117q49 90 49 213q0 143 -53 231 q-61 102 -191 102q-135 0 -194 -108q-50 -88 -50 -242z" />
<glyph unicode="&#xff;" d="M20 1090h320l233 -803l228 803h303l-375 -1072q-102 -305 -169.5 -380.5t-252.5 -75.5l-129 4v229l55 -4q88 0 123 25q47 33 66 139zM241 1257v236h258v-236h-258zM641 1257v236h258v-236h-258z" />
<glyph unicode="&#x152;" horiz-adv-x="2048" d="M76 735q0 315 133 522q162 252 479 252q125 0 211 -43q49 -25 107 -82v86h962v-260h-682v-309h635v-260h-635v-381h682v-260h-962v102q-70 -78 -135.5 -109.5t-190.5 -31.5q-231 0 -393 156q-211 204 -211 618zM377 719q0 -197 76 -334q94 -170 266 -170 q121 0 193.5 58.5t72.5 127.5v666q0 100 -90 150q-70 39 -164 38q-180 0 -272 -155q-82 -139 -82 -381z" />
<glyph unicode="&#x153;" horiz-adv-x="1933" d="M70 545q0 281 168 434q152 139 389 139q113 0 212 -44t162 -120q76 78 134 111q94 53 221 53q205 0 336 -112q176 -152 176 -488v-51h-748q14 -143 75.5 -204.5t180.5 -61.5q63 0 115.5 30.5t69.5 87.5h294q-53 -182 -196 -272q-121 -76 -283 -76t-264 52 q-61 31 -129 100q-49 -61 -119 -98q-100 -53 -237 -54q-238 0 -389 140q-168 153 -168 434zM365 545q0 -135 47 -217q66 -115 215 -115q147 0 213 113q49 86 49 219q0 135 -47 217q-66 115 -215 115q-147 0 -213 -113q-49 -86 -49 -219zM1128 653h445q-10 121 -82 181 q-57 49 -139 49q-100 0 -156 -59.5t-68 -170.5z" />
<glyph unicode="&#x178;" horiz-adv-x="569" d="M131 0v1470h307v-1470h-307zM-90 1618v152h706v-152h-706z" />
<glyph unicode="&#x2c6;" horiz-adv-x="1820" d="M131 0v1090h275v-160q45 80 98 121q86 68 215 67q113 0 178.5 -41t124.5 -133q51 74 92 107q84 68 199 67q166 0 272.5 -95t106.5 -269v-754h-287v662q0 115 -42 165t-114 50q-102 0 -148 -59.5t-46 -164.5v-653h-287v655q0 104 -20 146q-37 76 -152 76q-94 0 -136 -57.5 t-42 -155.5v-664h-287zM788 1257v236h258v-236h-258z" />
<glyph unicode="&#x2dc;" horiz-adv-x="681" d="M20 885v205h148v294h287v-294h178v-205h-178v-592q0 -53 18.5 -70.5t99.5 -17.5l60 4v-217l-135 -4h-37q-174 0 -240 63q-53 51 -53 172v662h-148zM193 -400v236h258v-236h-258z" />
<glyph unicode="&#x2000;" horiz-adv-x="985" />
<glyph unicode="&#x2001;" horiz-adv-x="1970" />
<glyph unicode="&#x2002;" horiz-adv-x="985" />
<glyph unicode="&#x2003;" horiz-adv-x="1970" />
<glyph unicode="&#x2004;" horiz-adv-x="655" />
<glyph unicode="&#x2005;" horiz-adv-x="491" />
<glyph unicode="&#x2006;" horiz-adv-x="327" />
<glyph unicode="&#x2007;" horiz-adv-x="327" />
<glyph unicode="&#x2008;" horiz-adv-x="245" />
<glyph unicode="&#x2009;" horiz-adv-x="393" />
<glyph unicode="&#x200a;" horiz-adv-x="108" />
<glyph unicode="&#x2010;" horiz-adv-x="681" d="M55 440v267h572v-267h-572z" />
<glyph unicode="&#x2011;" horiz-adv-x="681" d="M55 440v267h572v-267h-572z" />
<glyph unicode="&#x2012;" horiz-adv-x="681" d="M55 440v267h572v-267h-572z" />
<glyph unicode="&#x2013;" d="M0 465v217h1139v-217h-1139z" />
<glyph unicode="&#x2014;" horiz-adv-x="2048" d="M0 465v217h2048v-217h-2048z" />
<glyph unicode="&#x2018;" horiz-adv-x="569" d="M141 930v209q0 172 97 262q68 63 184 88v-105q-92 -29 -127 -84q-25 -39 -25 -110h158v-260h-287z" />
<glyph unicode="&#x2019;" horiz-adv-x="569" d="M141 1210v260h287v-208q0 -172 -96 -263q-68 -63 -185 -88v105q92 29 127 84q25 39 25 110h-158z" />
<glyph unicode="&#x201a;" horiz-adv-x="569" d="M141 0v260h287v-209q0 -172 -96 -262q-68 -63 -185 -88v104q92 29 127 84q25 39 25 111h-158z" />
<glyph unicode="&#x201c;" horiz-adv-x="1024" d="M131 930v209q0 172 96 262q68 63 185 88v-105q-92 -29 -127 -84q-25 -39 -25 -110h158v-260h-287zM606 930v209q0 172 96 262q68 63 185 88v-105q-92 -29 -127 -84q-25 -39 -25 -110h158v-260h-287z" />
<glyph unicode="&#x201d;" horiz-adv-x="1024" d="M131 1210v260h287v-208q0 -172 -96 -263q-68 -63 -185 -88v105q92 29 127 84q25 39 25 110h-158zM606 1210v260h287v-208q0 -172 -96 -263q-68 -63 -185 -88v105q92 29 127 84q25 39 25 110h-158z" />
<glyph unicode="&#x201e;" horiz-adv-x="1024" d="M131 0v260h287v-209q0 -172 -96 -262q-68 -63 -185 -88v104q92 29 127 84q25 39 25 111h-158zM606 0v260h287v-209q0 -172 -96 -262q-68 -63 -185 -88v104q92 29 127 84q25 39 25 111h-158z" />
<glyph unicode="&#x2022;" horiz-adv-x="716" d="M20 737q0 139 98.5 237.5t239.5 98.5t239.5 -96t98.5 -240q0 -143 -98 -241.5t-240 -98.5q-143 0 -240.5 97.5t-97.5 242.5z" />
<glyph unicode="&#x2026;" horiz-adv-x="569" d="M141 0v1090h287v-1090h-287zM-61 1237v152h706v-152h-706z" />
<glyph unicode="&#x202f;" horiz-adv-x="393" />
<glyph unicode="&#x2039;" horiz-adv-x="681" d="M170 451v245l342 295v-237l-205 -181l205 -180v-237z" />
<glyph unicode="&#x203a;" horiz-adv-x="681" d="M170 156v237l205 180l-205 181v237l342 -295v-245z" />
<glyph unicode="&#x205f;" horiz-adv-x="491" />
<glyph unicode="&#x20ac;" d="M59 289q0 154 86 240.5t232 107.5l258 39q47 6 67 20q33 23 33 66q0 80 -65 108q-41 18 -123 19q-96 0 -139 -51q-29 -33 -37 -101h-277q23 225 172 316q111 66 316 65q164 0 274 -55q160 -80 160 -260v-590q0 -90 16.5 -125t46.5 -45v-43h-309q-20 61 -27 129 q-70 -74 -127 -104q-94 -53 -225 -54q-137 0 -227 74q-105 86 -105 244zM346 307q0 -68 45 -102q37 -29 88 -29q102 0 179 59.5t77 155.5v139q-20 -16 -65 -31.5t-136.5 -29.5t-130.5 -41q-57 -39 -57 -121zM219 1237v152h706v-152h-706z" />
<glyph unicode="&#x2122;" horiz-adv-x="1251" d="M135 373v717h287v-676q0 -115 59 -164q45 -37 127 -37q88 0 146 49q76 66 75 199v629h287v-1090h-274v154q-109 -182 -336 -183q-170 0 -266 97q-105 104 -105 305zM273 1237v152h706v-152h-706z" />
<glyph unicode="&#x2219;" horiz-adv-x="1935" d="M25 1036q109 0 223 -41q68 -25 137 -63l8 160l6 211q82 -20 207 -63.5t189 -76.5q33 49 76.5 105.5t91.5 109.5q49 -55 88 -104q47 -59 79 -111q68 35 187 77t209 63l6 -211l8 -160q59 33 137 61q121 43 224 43q-29 -63 -101 -321q-51 -184 -114 -238q68 -33 116.5 -127 t95.5 -184q-115 0 -227 18q-53 8 -133 29l-6 -63q-4 -33 -10 -71t-6 -54q-90 12 -211 34.5t-183 38.5l-71 -53v-227q0 -31 -23.5 -50.5t-64.5 -19.5q-86 0 -86 70v227l-72 53q-70 -18 -182.5 -39.5t-212.5 -33.5q0 23 -7.5 65.5t-7.5 59.5l-6 63q-74 -20 -178.5 -33.5 t-183.5 -13.5q78 158 117.5 221.5t95.5 89.5q-61 51 -113 236q-69 251 -102 323zM119 967q59 -213 88 -305q51 -164 141 -164h119q-14 12 -29.5 33.5t-25.5 41.5q-20 49 -25.5 98.5t-5.5 143.5v49q-92 45 -135 62q-64 25 -127 41zM137 227q98 12 145.5 20.5t98.5 20.5 q-2 14 -2 26v15q0 59 35 103l32 28h-98q-88 0 -133 -69zM449 293q0 -29 8 -94.5t12 -108.5q158 23 281 55q-70 57 -105 108.5t-35 98.5q0 57 58 88h-13q-119 0 -162.5 -36.5t-43.5 -110.5zM451 793q0 -152 36 -215q47 -80 168 -80h50q-49 33 -73 82t-24 112q0 88 41 193.5 t113 224.5q-59 33 -134 60.5t-161 50.5q0 -92 -4 -174q-12 -246 -12 -254zM680 692q0 -92 66.5 -143t216.5 -51t216 51t66 143q0 111 -92 289q-68 131 -190 305q-160 -225 -228 -381q-55 -125 -55 -213zM684 352q0 -55 80 -135q68 -68 199 -158q133 92 198 158q80 80 80 135 q0 43 -66.5 65.5t-211.5 22.5q-143 0 -211 -22.5t-68 -65.5zM942 0v-182q4 -4 9 -8.5t12 -4.5q8 0 16 7q2 4 4 6v180l-20 -14zM1163 1110q74 -121 114 -223.5t40 -194.5q0 -66 -21.5 -113t-72.5 -81h47q121 0 166 77q39 66 39 216q0 53 -8.5 196t-8.5 234q-78 -20 -156 -49 t-139 -62zM1176 145q123 -33 280 -55q0 10 17 135q6 49 6 68q0 76 -39 108q-47 39 -170 39h-13q59 -33 60 -88q0 -45 -36.5 -97.5t-104.5 -109.5zM1460 498h117q92 0 141 161q43 154 88 308q-72 -18 -125 -39q-14 -6 -137 -64v-92q0 -74 -5 -111.5t-26 -87.5 q-24 -48 -53 -75zM1479 440l32 -28q35 -37 35 -99q0 -29 -2 -45q55 -14 100.5 -21t143.5 -20q-49 100 -76 142q-47 72 -135 71h-98z" />
<glyph unicode="&#xe000;" horiz-adv-x="1090" d="M0 1090h1090v-1090h-1090v1090z" />
<glyph unicode="&#xf101;" horiz-adv-x="681" d="M-20 1237l233 299h256l233 -299h-231l-131 168l-129 -168h-231z" />
<glyph unicode="&#xf102;" horiz-adv-x="681" d="M-35 1249q8 43 21.5 82t38.5 74q33 45 73 68q51 29 115 28q45 0 82 -12q41 -18 65 -27q47 -18 77 -26.5t50 -8.5q45 0 66.5 24t30.5 58h133q-20 -123 -77.5 -184t-145.5 -61q-35 0 -70 8t-77 21.5t-75 23.5q-59 20 -79 20q-47 0 -74 -34q-16 -23 -23 -54h-131z" />
<glyph unicode="&#xf103;" horiz-adv-x="569" d="M141 0v1090h287v-1090h-287z" />
<glyph unicode="&#xf104;" horiz-adv-x="681" d="M213 1257v236h258v-236h-258z" />
<glyph unicode="&#xfb01;" horiz-adv-x="1251" d="M823 0v1090h287v-1090h-287zM823 1219v266h287v-266h-287zM20 885v205h158v88q0 162 83 236.5t237 74.5l147 -4v-232h-80q-68 0 -84 -23.5t-16 -96.5v-43h186v-205h-186v-885h-287v885h-158z" />
<glyph unicode="&#xfb02;" horiz-adv-x="1251" d="M823 0v1470h287v-1470h-287zM20 885v205h158v88q0 162 83 236.5t237 74.5l147 -4v-232h-80q-68 0 -84 -23.5t-16 -96.5v-43h186v-205h-186v-885h-287v885h-158z" />
<glyph unicode="&#xfb03;" horiz-adv-x="1933" d="M1505 0v1090h287v-1090h-287zM1505 1219v266h287v-266h-287zM702 885v205h158v88q0 162 83 236.5t237 74.5l147 -4v-232h-80q-68 0 -84 -23.5t-16 -96.5v-43h186v-205h-186v-885h-287v885h-158zM20 885v205h158v88q0 162 83 236.5t237 74.5l147 -4v-232h-80 q-68 0 -84 -23.5t-16 -96.5v-43h186v-205h-186v-885h-287v885h-158z" />
<glyph unicode="&#xfb04;" horiz-adv-x="1933" d="M1505 0v1470h287v-1470h-287zM702 885v205h158v88q0 162 83 236.5t237 74.5l147 -4v-232h-80q-68 0 -84 -23.5t-16 -96.5v-43h186v-205h-186v-885h-287v885h-158zM20 885v205h158v88q0 162 83 236.5t237 74.5l147 -4v-232h-80q-68 0 -84 -23.5t-16 -96.5v-43h186v-205 h-186v-885h-287v885h-158z" />
</font>
</defs>
</svg>
